<svg width="414" height="152" viewBox="0 0 414 152" fill="none" xmlns="http://www.w3.org/2000/svg">
<path fill-rule="evenodd" clip-rule="evenodd" d="M25 27.1C29.7 30.9 31.4 30.6 40.2 30L123.1 25C124.9 25 123.4 23.2 122.8 23L109 13.1C106.4 11.1 102.8 8.70001 96.1 9.30001L15.9 15.2C13 15.5 12.4 17 13.6 18.1L25 27.1ZM30 46.4V133.6C30 138.3 32.3 140 37.6 139.7L128.7 134.4C134 134.1 134.6 130.9 134.6 127.1V40.5C134.6 36.7 133.1 34.6 129.9 34.9L34.7 40.5C31.2 40.8 30 42.6 30 46.4ZM119.9 51.1C120.5 53.7 119.9 56.4 117.3 56.7L112.9 57.6V122C109.1 124 105.6 125.2 102.6 125.2C97.9 125.2 96.7 123.7 93.2 119.3L64.5 74.2V117.8L73.6 119.8C73.6 119.8 73.6 125.1 66.3 125.1L46.1 126.3C45.5 125.1 46.1 122.2 48.1 121.6L53.4 120.1V62.5L46.1 61.9C45.5 59.3 47 55.5 51.1 55.2L72.8 53.7L102.7 99.3V59L95.1 58.1C94.5 54.9 96.9 52.5 99.8 52.2L119.9 51.1ZM9.2 7.2L92.7 1.10001C102.9 0.200006 105.6 0.800007 112 5.50001L138.6 24.2C143 27.4 144.5 28.3 144.5 31.8V134.5C144.5 140.9 142.2 144.7 134 145.3L37.1 151.2C30.9 151.5 28 150.6 24.8 146.5L5.1 121C1.6 116.3 0.0999985 112.8 0.0999985 108.7V17.4C0.0999985 12.1 2.5 7.8 9.2 7.2Z" fill="black"/>
<path d="M188.2 103.4V63.7H188.9L217.5 103.4H226.5V45.1H216.5V84.7H215.8L187.2 45.1H178.2V103.4H188.2ZM254.8 104.3C268 104.3 276.1 95.7 276.1 81.3C276.1 67 268 58.3 254.8 58.3C241.7 58.3 233.5 67 233.5 81.3C233.6 95.7 241.6 104.3 254.8 104.3ZM254.8 95.9C247.8 95.9 243.8 90.6 243.8 81.3C243.8 72.1 247.8 66.7 254.8 66.7C261.8 66.7 265.8 72.1 265.8 81.3C265.8 90.6 261.8 95.9 254.8 95.9ZM285.2 48.4V59.5H278.2V67.5H285.2V91.6C285.2 100.2 289.2 103.6 299.4 103.6C301.3 103.6 303.2 103.4 304.7 103.1V95.3C303.5 95.4 302.7 95.5 301.3 95.5C297.1 95.5 295.2 93.6 295.2 89.2V67.5H304.7V59.5H295.2V48.4H285.2ZM310.7 103.4H320.7V59.2H310.7V103.4ZM315.7 51.9C319 51.9 321.7 49.2 321.7 45.9C321.7 42.5 319 39.8 315.7 39.8C312.4 39.8 309.7 42.5 309.7 45.9C309.7 49.2 312.4 51.9 315.7 51.9ZM348.1 104.3C361.3 104.3 369.4 95.7 369.4 81.3C369.4 67 361.3 58.3 348.1 58.3C335 58.3 326.8 67 326.8 81.3C326.8 95.7 334.8 104.3 348.1 104.3ZM348.1 95.9C341.1 95.9 337.1 90.6 337.1 81.3C337.1 72.1 341.1 66.7 348.1 66.7C355 66.7 359.1 72.1 359.1 81.3C359 90.6 355 95.9 348.1 95.9ZM375.3 103.4H385.3V77.7C385.3 71.2 389.1 67.1 395 67.1C401.1 67.1 403.9 70.5 403.9 77.2V103.4H413.9V74.8C413.9 64.2 408.5 58.3 398.7 58.3C392.1 58.3 387.7 61.3 385.6 66.3H384.9V59.2H375.2C375.3 59.2 375.3 103.4 375.3 103.4Z" fill="black"/>
</svg>
