<svg width="650" height="500" viewBox="0 0 650 500" fill="none" xmlns="http://www.w3.org/2000/svg">
<path d="M310.566 71.404C169.973 71.404 55.995 185.381 55.995 325.975C55.995 367.327 65.857 406.382 83.356 440.904H537.775C555.274 406.382 565.136 367.327 565.136 325.975C565.137 185.381 451.16 71.404 310.566 71.404Z" fill="url(#paint0_linear_5_26)"/>
<path d="M139.365 110.974C149.918 110.974 158.473 102.419 158.473 91.866C158.473 81.3129 149.918 72.758 139.365 72.758C128.812 72.758 120.257 81.3129 120.257 91.866C120.257 102.419 128.812 110.974 139.365 110.974Z" fill="url(#paint1_linear_5_26)"/>
<path d="M595.365 385.964C601.551 385.964 606.566 380.949 606.566 374.763C606.566 368.577 601.551 363.562 595.365 363.562C589.179 363.562 584.164 368.577 584.164 374.763C584.164 380.949 589.179 385.964 595.365 385.964Z" fill="url(#paint2_linear_5_26)"/>
<path d="M514.369 125.325C514.369 128.232 512.013 130.588 509.106 130.588C506.2 130.588 503.843 128.232 503.843 125.325C503.843 122.419 506.199 120.062 509.106 120.062C512.013 120.062 514.369 122.418 514.369 125.325Z" fill="url(#paint3_linear_5_26)"/>
<path d="M565.191 258.353C572.35 251.194 572.35 239.586 565.191 232.427C558.031 225.268 546.424 225.268 539.264 232.427C532.105 239.586 532.105 251.194 539.264 258.353C546.424 265.513 558.031 265.513 565.191 258.353Z" fill="white"/>
<path d="M89.002 415.852C89.002 424.096 82.319 430.779 74.076 430.779C65.832 430.779 59.15 424.096 59.15 415.852C59.15 407.609 65.832 400.926 74.076 400.926C82.32 400.926 89.002 407.609 89.002 415.852Z" fill="white"/>
<path d="M101.061 222.55C114.03 216.317 119.489 200.752 113.256 187.784C107.023 174.816 91.4581 169.356 78.49 175.589C65.522 181.822 60.0622 197.387 66.2951 210.355C72.528 223.323 88.0935 228.783 101.061 222.55Z" fill="white"/>
<path d="M85.002 237.144H182.006" stroke="white" stroke-miterlimit="10" stroke-linecap="round"/>
<path d="M525.096 340.187H622.1" stroke="white" stroke-miterlimit="10" stroke-linecap="round"/>
<path d="M362.448 106.388H459.453" stroke="white" stroke-miterlimit="10" stroke-linecap="round"/>
<path d="M97.202 376.894H93.495V373.187C93.495 372.646 93.056 372.207 92.515 372.207C91.974 372.207 91.535 372.646 91.535 373.187V376.894H87.828C87.287 376.894 86.848 377.333 86.848 377.874C86.848 378.415 87.287 378.854 87.828 378.854H91.535V382.561C91.535 383.102 91.974 383.541 92.515 383.541C93.056 383.541 93.495 383.102 93.495 382.561V378.854H97.202C97.743 378.854 98.182 378.415 98.182 377.874C98.182 377.332 97.743 376.894 97.202 376.894Z" fill="white"/>
<path d="M532.231 223.175H526.588V217.532C526.588 216.708 525.92 216.04 525.096 216.04C524.272 216.04 523.604 216.708 523.604 217.532V223.175H517.961C517.137 223.175 516.469 223.843 516.469 224.667C516.469 225.491 517.137 226.159 517.961 226.159H523.604V231.802C523.604 232.626 524.272 233.294 525.096 233.294C525.92 233.294 526.588 232.626 526.588 231.802V226.159H532.231C533.055 226.159 533.723 225.491 533.723 224.667C533.722 223.843 533.054 223.175 532.231 223.175Z" fill="white"/>
<path d="M137.859 189.144H134.415V185.7C134.415 185.197 134.007 184.79 133.505 184.79C133.002 184.79 132.595 185.198 132.595 185.7V189.144H129.151C128.648 189.144 128.241 189.552 128.241 190.054C128.241 190.557 128.649 190.964 129.151 190.964H132.595V194.408C132.595 194.911 133.003 195.318 133.505 195.318C134.008 195.318 134.415 194.91 134.415 194.408V190.964H137.859C138.362 190.964 138.769 190.556 138.769 190.054C138.769 189.552 138.361 189.144 137.859 189.144Z" fill="white"/>
<path d="M569.824 414.872H566.117V411.165C566.117 410.624 565.678 410.185 565.137 410.185C564.596 410.185 564.157 410.624 564.157 411.165V414.872H560.45C559.909 414.872 559.47 415.311 559.47 415.852C559.47 416.393 559.909 416.832 560.45 416.832H564.157V420.539C564.157 421.08 564.596 421.519 565.137 421.519C565.678 421.519 566.117 421.08 566.117 420.539V416.832H569.824C570.365 416.832 570.804 416.393 570.804 415.852C570.804 415.311 570.365 414.872 569.824 414.872Z" fill="url(#paint4_linear_5_26)"/>
<path d="M545.142 301.888L538.618 290.588L532.093 301.888H536.519V320.805H540.716V301.888H545.142Z" fill="white"/>
<path d="M111.482 403.265L104.958 391.965L98.434 403.265H102.859V422.182H107.057V403.265H111.482Z" fill="white"/>
<path d="M286.421 102.58L279.896 91.28L273.372 102.58H277.798V121.497H281.995V102.58H286.421Z" fill="white"/>
<path d="M133.59 271.212L129.385 263.929L125.18 271.212H128.033V283.404H130.738V271.212H133.59Z" fill="white"/>
<path d="M92.515 271.514C79.661 271.514 69.203 281.972 69.203 294.825C69.203 307.679 79.661 318.136 92.515 318.136C105.369 318.136 115.826 307.678 115.826 294.825C115.826 281.972 105.369 271.514 92.515 271.514ZM71.201 300.221H77.635C78.1 303.195 78.939 305.949 80.073 308.362H75.21C73.349 305.989 71.963 303.229 71.201 300.221ZM113.829 289.43H107.395C106.93 286.456 106.092 283.702 104.958 281.289H109.821C111.681 283.661 113.068 286.422 113.829 289.43ZM106.062 289.43H99.198C99.004 286.558 98.655 283.774 98.158 281.289H103.514C104.696 283.661 105.577 286.422 106.062 289.43ZM106.489 294.825C106.489 296.216 106.403 297.576 106.245 298.896H99.276C99.345 297.543 99.38 296.179 99.38 294.825C99.38 293.471 99.345 292.107 99.276 290.754H106.245C106.402 292.075 106.489 293.434 106.489 294.825ZM87.076 298.896C87.011 297.589 86.975 296.232 86.975 294.825C86.975 293.419 87.011 292.062 87.076 290.754H97.954C98.019 292.061 98.055 293.418 98.055 294.825C98.055 296.231 98.019 297.588 97.954 298.896H87.076ZM97.877 300.221C97.672 303.284 97.301 306.03 96.818 308.362H88.212C87.729 306.03 87.358 303.284 87.153 300.221H97.877ZM78.542 294.825C78.542 293.434 78.628 292.074 78.786 290.754H85.755C85.687 292.107 85.651 293.471 85.651 294.825C85.651 296.179 85.686 297.543 85.755 298.896H78.786C78.628 297.576 78.542 296.216 78.542 294.825ZM87.153 289.43C87.358 286.366 87.729 283.621 88.212 281.289H96.818C97.301 283.621 97.672 286.367 97.877 289.43H87.153ZM97.873 279.964C97.211 277.115 96.335 274.76 95.257 273.266C98.214 274.195 100.837 276.597 102.803 279.964H97.873ZM96.52 279.964H88.51C89.593 275.486 91.098 272.839 92.515 272.839C93.932 272.839 95.437 275.486 96.52 279.964ZM87.158 279.964H82.228C84.194 276.597 86.817 274.195 89.774 273.266C88.696 274.76 87.82 277.115 87.158 279.964ZM86.872 281.289C86.375 283.774 86.026 286.558 85.832 289.43H78.968C79.452 286.422 80.334 283.662 81.516 281.289H86.872ZM77.635 289.43H71.201C71.963 286.422 73.349 283.662 75.21 281.289H80.073C78.938 283.702 78.1 286.456 77.635 289.43ZM77.455 290.755C77.301 292.078 77.217 293.437 77.217 294.826C77.217 296.215 77.302 297.574 77.455 298.897H70.912C70.664 297.577 70.528 296.217 70.528 294.826C70.528 293.435 70.664 292.075 70.912 290.755H77.455ZM78.969 300.221H85.833C86.027 303.093 86.376 305.877 86.873 308.362H81.517C80.334 305.989 79.453 303.229 78.969 300.221ZM87.158 309.687C87.82 312.536 88.696 314.891 89.775 316.385C86.818 315.456 84.195 313.054 82.229 309.687H87.158ZM88.51 309.687H96.52C95.437 314.165 93.933 316.812 92.515 316.812C91.097 316.812 89.593 314.165 88.51 309.687ZM97.873 309.687H102.803C100.837 313.054 98.214 315.456 95.257 316.385C96.335 314.891 97.211 312.536 97.873 309.687ZM98.158 308.362C98.655 305.876 99.004 303.093 99.198 300.221H106.062C105.578 303.229 104.697 305.989 103.514 308.362H98.158ZM107.395 300.221H113.829C113.067 303.229 111.681 305.989 109.821 308.362H104.958C106.092 305.949 106.931 303.195 107.395 300.221ZM107.575 298.896C107.729 297.573 107.813 296.214 107.813 294.825C107.813 293.436 107.728 292.077 107.575 290.754H114.118C114.366 292.074 114.502 293.434 114.502 294.825C114.502 296.216 114.366 297.576 114.118 298.896H107.575ZM108.701 279.964H104.292C102.916 277.436 101.196 275.359 99.244 273.896C102.908 275.076 106.155 277.192 108.701 279.964ZM85.787 273.896C83.835 275.359 82.115 277.436 80.738 279.964H76.329C78.876 277.192 82.123 275.076 85.787 273.896ZM76.329 309.687H80.738C82.114 312.215 83.834 314.292 85.787 315.755C82.123 314.574 78.876 312.458 76.329 309.687ZM99.244 315.755C101.196 314.292 102.916 312.215 104.292 309.687H108.701C106.155 312.458 102.908 314.574 99.244 315.755Z" fill="white"/>
<path d="M427.461 159.889V149.858C427.461 148.877 426.666 148.081 425.684 148.081H423.102C422.346 148.081 421.677 147.567 421.508 146.83C420.614 142.935 419.092 139.28 417.039 135.985C416.629 135.327 416.707 134.48 417.255 133.932L419.071 132.116C419.765 131.422 419.765 130.297 419.071 129.604L411.979 122.511C411.285 121.817 410.16 121.817 409.466 122.511L407.653 124.324C407.105 124.872 406.257 124.949 405.6 124.539C402.306 122.485 398.65 120.961 394.753 120.066C394.016 119.897 393.503 119.228 393.503 118.472V115.9C393.503 114.919 392.708 114.123 391.726 114.123H381.695C380.714 114.123 379.918 114.919 379.918 115.9V118.474C379.918 119.23 379.404 119.899 378.668 120.068C374.77 120.962 371.113 122.486 367.819 124.54C367.162 124.95 366.314 124.872 365.766 124.325L363.955 122.513C363.261 121.819 362.136 121.819 361.442 122.513L354.35 129.606C353.656 130.3 353.656 131.425 354.35 132.118L356.164 133.931C356.712 134.479 356.789 135.326 356.38 135.984C354.327 139.279 352.805 142.935 351.911 146.831C351.742 147.568 351.073 148.081 350.317 148.081H347.738C346.757 148.081 345.961 148.876 345.961 149.858V159.889C345.961 160.87 346.756 161.666 347.738 161.666H350.318C351.074 161.666 351.742 162.179 351.912 162.916C352.807 166.812 354.33 170.468 356.383 173.761C356.793 174.418 356.715 175.266 356.167 175.814L354.351 177.63C353.657 178.324 353.657 179.449 354.351 180.142L361.443 187.235C362.137 187.929 363.262 187.929 363.956 187.235L365.774 185.417C366.322 184.869 367.169 184.792 367.827 185.201C371.12 187.252 374.775 188.772 378.67 189.666C379.407 189.835 379.92 190.504 379.92 191.26V193.847C379.92 194.828 380.716 195.624 381.697 195.624H391.728C392.709 195.624 393.505 194.829 393.505 193.847V191.259C393.505 190.503 394.019 189.834 394.756 189.665C398.651 188.772 402.305 187.25 405.598 185.2C406.255 184.79 407.103 184.868 407.651 185.416L409.47 187.235C410.164 187.929 411.289 187.929 411.983 187.235L419.075 180.142C419.769 179.448 419.769 178.323 419.075 177.63L417.258 175.813C416.71 175.265 416.632 174.417 417.042 173.76C419.094 170.467 420.617 166.812 421.511 162.917C421.68 162.18 422.349 161.667 423.105 161.667H425.688C426.666 161.666 427.461 160.871 427.461 159.889ZM386.709 178.385C373.724 178.385 363.213 167.853 363.213 154.867C363.213 141.902 373.725 131.369 386.709 131.369C399.694 131.369 410.206 141.902 410.206 154.867C410.206 167.853 399.694 178.385 386.709 178.385Z" fill="url(#paint5_linear_5_26)"/>
<path d="M356.67 124.264V118.007C356.67 117.395 356.174 116.899 355.562 116.899H353.952C353.48 116.899 353.063 116.579 352.958 116.119C352.401 113.69 351.451 111.409 350.171 109.355C349.916 108.945 349.964 108.416 350.305 108.075L351.438 106.942C351.871 106.509 351.871 105.808 351.438 105.375L347.014 100.951C346.581 100.518 345.88 100.518 345.447 100.951L344.316 102.082C343.974 102.424 343.445 102.472 343.035 102.216C340.981 100.935 338.7 99.984 336.269 99.426C335.809 99.32 335.489 98.903 335.489 98.432V96.827C335.489 96.215 334.993 95.719 334.381 95.719H328.124C327.512 95.719 327.016 96.215 327.016 96.827V98.432C327.016 98.903 326.696 99.321 326.236 99.426C323.805 99.984 321.524 100.934 319.469 102.216C319.059 102.472 318.53 102.423 318.188 102.082L317.058 100.952C316.625 100.519 315.923 100.519 315.491 100.952L311.067 105.376C310.634 105.809 310.634 106.51 311.067 106.943L312.198 108.074C312.54 108.416 312.588 108.944 312.333 109.354C311.053 111.409 310.103 113.69 309.545 116.12C309.439 116.58 309.022 116.9 308.551 116.9H306.942C306.33 116.9 305.834 117.396 305.834 118.008V124.265C305.834 124.877 306.33 125.373 306.942 125.373H308.551C309.022 125.373 309.439 125.693 309.545 126.153C310.104 128.583 311.053 130.863 312.334 132.917C312.589 133.327 312.541 133.856 312.199 134.198L311.066 135.331C310.633 135.764 310.633 136.465 311.066 136.898L315.49 141.322C315.923 141.755 316.624 141.755 317.057 141.322L318.191 140.188C318.533 139.846 319.061 139.798 319.471 140.053C321.525 141.332 323.805 142.281 326.234 142.838C326.694 142.943 327.014 143.361 327.014 143.832V145.446C327.014 146.058 327.51 146.554 328.122 146.554H334.379C334.991 146.554 335.487 146.058 335.487 145.446V143.832C335.487 143.36 335.807 142.943 336.267 142.838C338.696 142.281 340.976 141.332 343.029 140.053C343.439 139.798 343.968 139.846 344.309 140.187L345.443 141.322C345.876 141.755 346.577 141.755 347.01 141.322L351.434 136.898C351.867 136.465 351.867 135.764 351.434 135.331L350.301 134.198C349.959 133.856 349.911 133.328 350.166 132.917C351.446 130.863 352.396 128.584 352.954 126.154C353.059 125.694 353.477 125.374 353.948 125.374H355.559C356.173 125.373 356.67 124.876 356.67 124.264ZM331.251 134.134C324.073 134.134 318.261 128.311 318.261 121.132C318.261 113.964 324.072 108.142 331.251 108.142C338.43 108.142 344.241 113.965 344.241 121.132C344.241 128.312 338.43 134.134 331.251 134.134Z" fill="white"/>
<path d="M475.697 390.694H174.303C162.851 390.694 153.568 381.41 153.568 369.959V175.623C153.568 164.171 162.852 154.888 174.303 154.888H475.697C487.149 154.888 496.432 164.172 496.432 175.623V369.959C496.432 381.411 487.149 390.694 475.697 390.694Z" fill="url(#paint6_linear_5_26)"/>
<path d="M488.025 176.528V351.474C488.025 354.686 485.422 357.289 482.21 357.289H167.799C164.587 357.289 161.984 354.686 161.984 351.474V176.528C161.984 168.849 168.209 162.624 175.888 162.624H474.122C481.8 162.624 488.025 168.849 488.025 176.528Z" fill="white"/>
<path d="M357.709 441.007H292.289L299.159 401.137L300.959 390.697H349.039L350.839 401.137L357.709 441.007Z" fill="url(#paint7_linear_5_26)"/>
<path d="M350.839 401.137H299.159L300.959 390.697H349.039L350.839 401.137Z" fill="url(#paint8_linear_5_26)"/>
<path d="M379.386 432.437H270.615V441.009H379.386V432.437Z" fill="url(#paint9_linear_5_26)"/>
<path d="M415.169 305.993H234.831C228.597 305.993 223.543 300.939 223.543 294.705V227.994C223.543 221.76 228.597 216.706 234.831 216.706H415.169C421.403 216.706 426.457 221.76 426.457 227.994V294.705C426.457 300.939 421.403 305.993 415.169 305.993Z" stroke="url(#paint10_linear_5_26)" stroke-width="1.0981" stroke-miterlimit="10" stroke-linecap="round"/>
<path d="M168.147 440.542H122.874C119.778 440.542 117.269 438.033 117.269 434.937V342.959C117.269 339.863 119.778 337.354 122.874 337.354H168.147C171.243 337.354 173.752 339.863 173.752 342.959V434.937C173.752 438.033 171.242 440.542 168.147 440.542Z" fill="url(#paint11_linear_5_26)"/>
<path d="M168.177 426.937H122.844C121.228 426.937 119.919 425.627 119.919 424.012V346.696C119.919 345.08 121.229 343.771 122.844 343.771H168.177C169.793 343.771 171.102 345.081 171.102 346.696V424.012C171.102 425.628 169.792 426.937 168.177 426.937Z" fill="white"/>
<path d="M150.936 433.854C150.936 436.85 148.507 439.279 145.511 439.279C142.515 439.279 140.086 436.85 140.086 433.854C140.086 430.858 142.515 428.429 145.511 428.429C148.507 428.429 150.936 430.858 150.936 433.854Z" fill="url(#paint12_linear_5_26)"/>
<path d="M150.186 433.854C150.186 436.436 148.093 438.529 145.511 438.529C142.929 438.529 140.836 436.436 140.836 433.854C140.836 431.272 142.929 429.179 145.511 429.179C148.092 429.179 150.186 431.272 150.186 433.854Z" fill="white"/>
<path d="M152.427 341.812H138.594C138.019 341.812 137.552 341.346 137.552 340.77C137.552 340.195 138.018 339.728 138.594 339.728H152.427C153.002 339.728 153.469 340.194 153.469 340.77C153.469 341.346 153.002 341.812 152.427 341.812Z" fill="url(#paint13_linear_5_26)"/>
<path d="M157.102 340.771C157.102 341.346 156.636 341.813 156.06 341.813C155.485 341.813 155.018 341.347 155.018 340.771C155.018 340.196 155.484 339.729 156.06 339.729C156.636 339.729 157.102 340.195 157.102 340.771Z" fill="url(#paint14_linear_5_26)"/>
<path d="M145.51 401.479C154.416 401.479 161.635 394.26 161.635 385.354C161.635 376.448 154.416 369.229 145.51 369.229C136.604 369.229 129.385 376.448 129.385 385.354C129.385 394.26 136.604 401.479 145.51 401.479Z" fill="url(#paint15_linear_5_26)"/>
<path d="M145.51 390.948C144.996 390.948 144.498 390.75 144.123 390.388L129.382 376.196C128.587 375.43 128.562 374.164 129.328 373.369C130.094 372.571 131.36 372.549 132.156 373.315L145.103 385.78L158.024 364.662C158.601 363.721 159.831 363.425 160.774 364C161.716 364.576 162.013 365.808 161.436 366.75L147.216 389.992C146.9 390.509 146.366 390.854 145.764 390.932C145.68 390.943 145.595 390.948 145.51 390.948Z" fill="url(#paint16_linear_5_26)"/>
<path d="M518.766 396.609C518.44 396.609 518.116 396.619 517.793 396.634C517.793 396.626 517.794 396.618 517.794 396.609C517.794 380.239 504.524 366.969 488.154 366.969C474.758 366.969 463.442 375.859 459.772 388.059C458.495 387.644 457.136 387.413 455.72 387.413C449.796 387.413 444.795 391.346 443.173 396.742C442.382 396.656 441.58 396.608 440.766 396.608C428.643 396.608 418.816 406.435 418.816 418.558C418.816 430.681 428.643 440.508 440.766 440.508H518.766C530.889 440.508 540.716 430.681 540.716 418.558C540.716 406.435 530.889 396.609 518.766 396.609Z" fill="url(#paint17_linear_5_26)"/>
<path d="M213.027 129.339C212.701 129.339 212.377 129.349 212.054 129.364C212.054 129.356 212.055 129.348 212.055 129.339C212.055 112.969 198.785 99.699 182.415 99.699C169.019 99.699 157.703 108.589 154.033 120.789C152.756 120.374 151.397 120.143 149.982 120.143C144.058 120.143 139.057 124.076 137.435 129.472C136.644 129.386 135.842 129.338 135.028 129.338C122.905 129.338 113.078 139.165 113.078 151.288C113.078 163.411 122.905 173.238 135.028 173.238H213.028C225.151 173.238 234.978 163.411 234.978 151.288C234.977 139.167 225.15 129.339 213.027 129.339Z" fill="white"/>
<path d="M213.027 129.339C212.701 129.339 212.377 129.349 212.054 129.364C212.054 129.356 212.055 129.348 212.055 129.339C212.055 112.969 198.785 99.699 182.415 99.699C169.019 99.699 157.703 108.589 154.033 120.789C152.756 120.374 151.397 120.143 149.982 120.143C144.058 120.143 139.057 124.076 137.435 129.472C136.644 129.386 135.842 129.338 135.028 129.338C122.905 129.338 113.078 139.165 113.078 151.288C113.078 163.411 122.905 173.238 135.028 173.238H213.028C225.151 173.238 234.978 163.411 234.978 151.288C234.977 139.167 225.15 129.339 213.027 129.339Z" stroke="url(#paint18_linear_5_26)" stroke-width="2" stroke-miterlimit="10" stroke-linecap="round" stroke-linejoin="round"/>
<path d="M145.51 330.555V329.055" stroke="url(#paint19_linear_5_26)" stroke-miterlimit="10" stroke-linecap="round"/>
<path d="M145.51 326.028V276.621C145.51 269.611 151.193 263.928 158.203 263.928H220.53" stroke="url(#paint20_linear_5_26)" stroke-miterlimit="10" stroke-linecap="round" stroke-dasharray="3.03 3.03"/>
<path d="M222.043 263.929H223.543" stroke="url(#paint21_linear_5_26)" stroke-miterlimit="10" stroke-linecap="round"/>
<path d="M223.543 266.322C224.98 266.322 226.144 265.158 226.144 263.721C226.144 262.285 224.98 261.12 223.543 261.12C222.107 261.12 220.942 262.285 220.942 263.721C220.942 265.158 222.107 266.322 223.543 266.322Z" fill="url(#paint22_linear_5_26)"/>
<path d="M145.51 334.43C147.65 334.43 149.385 332.695 149.385 330.555C149.385 328.415 147.65 326.68 145.51 326.68C143.37 326.68 141.635 328.415 141.635 330.555C141.635 332.695 143.37 334.43 145.51 334.43Z" fill="url(#paint23_linear_5_26)"/>
<path d="M242.476 142.738H243.976" stroke="url(#paint24_linear_5_26)" stroke-miterlimit="10" stroke-linecap="round"/>
<path d="M246.936 142.738H291.576C298.586 142.738 304.269 148.421 304.269 155.431V213.725" stroke="url(#paint25_linear_5_26)" stroke-miterlimit="10" stroke-linecap="round" stroke-dasharray="2.96 2.96"/>
<path d="M304.269 215.205V216.705" stroke="url(#paint26_linear_5_26)" stroke-miterlimit="10" stroke-linecap="round"/>
<path d="M304.269 219.306C305.706 219.306 306.87 218.141 306.87 216.705C306.87 215.269 305.706 214.104 304.269 214.104C302.833 214.104 301.668 215.269 301.668 216.705C301.668 218.141 302.833 219.306 304.269 219.306Z" fill="url(#paint27_linear_5_26)"/>
<path d="M242.476 146.613C244.616 146.613 246.351 144.878 246.351 142.738C246.351 140.598 244.616 138.863 242.476 138.863C240.336 138.863 238.601 140.598 238.601 142.738C238.601 144.878 240.336 146.613 242.476 146.613Z" fill="url(#paint28_linear_5_26)"/>
<path d="M247.675 305.993V307.493" stroke="url(#paint29_linear_5_26)" stroke-miterlimit="10" stroke-linecap="round"/>
<path d="M247.675 310.517V387.632" stroke="url(#paint30_linear_5_26)" stroke-miterlimit="10" stroke-linecap="round" stroke-dasharray="3.02 3.02"/>
<path d="M247.675 389.144V390.644" stroke="url(#paint31_linear_5_26)" stroke-miterlimit="10" stroke-linecap="round"/>
<path d="M247.882 394.519C250.022 394.519 251.757 392.784 251.757 390.644C251.757 388.504 250.022 386.769 247.882 386.769C245.742 386.769 244.007 388.504 244.007 390.644C244.007 392.784 245.742 394.519 247.882 394.519Z" fill="url(#paint32_linear_5_26)"/>
<path d="M247.675 308.594C246.239 308.594 245.074 307.429 245.074 305.993C245.074 304.557 246.239 303.392 247.675 303.392C249.112 303.392 250.276 304.557 250.276 305.993C250.276 307.429 249.111 308.594 247.675 308.594Z" fill="url(#paint33_linear_5_26)"/>
<path d="M426.457 242.037H427.957" stroke="url(#paint34_linear_5_26)" stroke-miterlimit="10" stroke-linecap="round"/>
<path d="M430.916 242.037H441.724C444.096 242.037 446.018 243.96 446.018 246.332V262.818" stroke="url(#paint35_linear_5_26)" stroke-miterlimit="10" stroke-linecap="round" stroke-dasharray="2.96 2.96"/>
<path d="M446.019 264.297V265.797" stroke="url(#paint36_linear_5_26)" stroke-miterlimit="10" stroke-linecap="round"/>
<path d="M446.019 269.672C448.159 269.672 449.894 267.937 449.894 265.797C449.894 263.657 448.159 261.922 446.019 261.922C443.879 261.922 442.144 263.657 442.144 265.797C442.144 267.937 443.879 269.672 446.019 269.672Z" fill="url(#paint37_linear_5_26)"/>
<path d="M426.457 244.638C427.894 244.638 429.058 243.473 429.058 242.037C429.058 240.601 427.894 239.436 426.457 239.436C425.021 239.436 423.856 240.601 423.856 242.037C423.856 243.473 425.021 244.638 426.457 244.638Z" fill="url(#paint38_linear_5_26)"/>
<path d="M381.769 305.993V307.493" stroke="url(#paint39_linear_5_26)" stroke-miterlimit="10" stroke-linecap="round"/>
<path d="M381.769 310.531V407.989C381.769 414.284 386.872 419.387 393.167 419.387H409.999" stroke="url(#paint40_linear_5_26)" stroke-miterlimit="10" stroke-linecap="round" stroke-dasharray="3.04 3.04"/>
<path d="M411.519 419.388H413.019" stroke="url(#paint41_linear_5_26)" stroke-miterlimit="10" stroke-linecap="round"/>
<path d="M381.769 308.594C383.206 308.594 384.37 307.43 384.37 305.993C384.37 304.557 383.206 303.392 381.769 303.392C380.333 303.392 379.168 304.557 379.168 305.993C379.168 307.43 380.333 308.594 381.769 308.594Z" fill="url(#paint42_linear_5_26)"/>
<path d="M413.019 423.263C415.159 423.263 416.894 421.528 416.894 419.388C416.894 417.248 415.159 415.513 413.019 415.513C410.879 415.513 409.144 417.248 409.144 419.388C409.144 421.528 410.879 423.263 413.019 423.263Z" fill="url(#paint43_linear_5_26)"/>
<path d="M468.197 210.957H418.724C414.623 210.957 411.298 207.632 411.298 203.531V176.577C411.298 172.476 414.623 169.151 418.724 169.151H468.197C472.298 169.151 475.623 172.476 475.623 176.577V203.531C475.622 207.633 472.298 210.957 468.197 210.957Z" stroke="url(#paint44_linear_5_26)" stroke-miterlimit="10" stroke-linecap="round" stroke-dasharray="5 5"/>
<path d="M439.307 206.985C439.157 206.985 439.005 206.959 438.856 206.903C438.191 206.654 437.852 205.913 438.101 205.247L449.754 174.076C450.003 173.41 450.745 173.071 451.41 173.321C452.075 173.57 452.414 174.311 452.165 174.977L440.512 206.148C440.319 206.665 439.828 206.985 439.307 206.985Z" fill="url(#paint45_linear_5_26)"/>
<path d="M434.548 201.599C434.164 201.599 433.78 201.452 433.486 201.159L424.85 192.523C423.54 191.213 423.54 189.082 424.85 187.773L433.673 178.95C434.26 178.363 435.21 178.363 435.797 178.95C436.384 179.536 436.384 180.487 435.797 181.074L426.974 189.897C426.835 190.036 426.835 190.261 426.974 190.4L435.61 199.036C436.197 199.622 436.197 200.574 435.61 201.16C435.316 201.452 434.932 201.599 434.548 201.599Z" fill="url(#paint46_linear_5_26)"/>
<path d="M455.533 201.599C455.149 201.599 454.765 201.452 454.471 201.159C453.884 200.573 453.884 199.622 454.471 199.035L463.294 190.213C463.433 190.074 463.433 189.848 463.294 189.71L454.658 181.074C454.071 180.488 454.071 179.537 454.658 178.95C455.245 178.363 456.195 178.363 456.782 178.95L465.418 187.586C466.728 188.896 466.728 191.027 465.418 192.336L456.595 201.159C456.302 201.452 455.917 201.599 455.533 201.599Z" fill="url(#paint47_linear_5_26)"/>
<path d="M452.898 440.509H465.33H467.084H472.836C472.836 440.509 474.574 436.854 472.088 432.325C472.088 432.325 470.436 433.65 465.486 432.754C465.486 432.754 463.421 434.508 461.994 435.194C460.56 435.887 452.345 437.5 452.898 440.509Z" fill="#283770"/>
<path d="M509.106 431.599C509.106 431.599 506.348 433.018 502.463 432.124C502.463 432.124 502.086 432.639 501.574 434.04C501.164 435.16 498.702 437.399 498.23 439.816C498.16 440.175 498.444 440.508 498.809 440.508H510.694C510.97 440.508 511.21 440.318 511.265 440.047C511.513 438.83 511.871 435.362 509.106 431.599Z" fill="#283770"/>
<path d="M465.486 432.754L465.251 425.774L472.595 425.93L472.088 432.325C472.088 432.325 470.565 434.14 465.486 432.754Z" fill="#FFA49A"/>
<path d="M502.463 432.125L501.72 425.774H508.845L509.106 431.599C509.106 431.599 507.206 433.444 502.463 432.125Z" fill="#FFA49A"/>
<path d="M507.569 375.833C506.568 363.887 505.826 349.745 506.019 346.68C506.658 336.775 504.158 322.406 500.223 317.823C500.223 317.823 481.855 318.631 473.46 319.101C467.614 319.432 467.36 317.861 467.376 317.484C467.16 318.855 463.671 341.406 461.415 376.989C461.353 377.959 461.299 380.647 461.338 381.233C461.507 385.122 462.123 393.102 462.878 402.105C463.64 411.108 464.84 429.491 464.84 429.491C466.188 429.699 469.98 430.097 472.991 429.889C472.991 429.889 474.377 415.075 475.27 408.213C476.664 397.546 476.158 379.369 475.986 376.597C475.986 376.597 481.803 355.573 484.013 347.578L485.784 348.056C494.731 389.204 500.988 428.402 500.988 428.402C504.213 429.164 507.872 428.932 509.56 428.306C509.56 428.306 512.036 400.171 507.569 375.833Z" fill="url(#paint48_linear_5_26)"/>
<path d="M465.824 263.721C465.824 263.721 463.407 266.367 460.595 279.242H469.845L465.824 263.721Z" fill="url(#paint49_linear_5_26)"/>
<path d="M466.827 318.805C467.059 321.342 475.354 322.406 480.763 322.406C486.85 322.406 497.192 319.767 500.223 317.823C500.981 317.337 499.578 312.966 499.508 305.649C499.415 295.922 500.525 284.251 500.997 282.863C503.07 276.752 504.988 271.515 504.161 266.635C503.218 265.014 502.181 263.681 501.16 262.598C498.113 259.34 490.323 256.184 489.878 256.044C489.847 256.036 485.08 256.098 481.947 255.996C479.16 255.912 478.626 255.833 476.627 256.044C473.407 257.617 468.032 260.407 465.824 263.721C463.896 266.614 463.948 270.848 465.523 281.292C466.057 284.818 467.028 298.869 467.228 309.211C467.338 314.871 466.726 317.703 466.827 318.805Z" fill="url(#paint50_linear_5_26)"/>
<path d="M488.157 257.493C487.676 256.353 488.715 255.86 488.477 254.378C487.659 249.284 487.96 242.687 487.96 242.687L481.693 247.956L478.739 250.442C478.419 251.923 477.897 253.817 477.461 255.352C477.001 256.918 477.58 258.103 477.58 258.103L488.157 257.493Z" fill="#FFA49A"/>
<path d="M485.569 247.96C485.569 247.96 483.056 253.51 477.459 255.348C477.9 253.815 478.419 251.924 478.74 250.442L481.694 247.955L485.569 247.96Z" fill="#FF8189"/>
<path d="M472.102 236.779C472.102 236.779 470.918 249.19 474.972 251.448C477.197 252.688 481.898 252.211 484.945 249.367C486.282 248.12 487.079 246.404 487.704 244.686C488.72 241.895 490.278 236.716 489.288 233.401C487.982 229.025 475.354 225.3 472.502 233.686C472.278 234.348 472.196 235.973 472.102 236.779Z" fill="#FFA49A"/>
<path d="M470.286 231.893C468.674 233.667 470.207 235.218 472.467 236.017C473.322 236.319 474.374 236.547 475.657 236.616C478.132 236.756 481.469 236.32 482.68 235.888C482.25 237.666 482.515 238.947 483.378 239.587C484.38 240.329 487.456 240.336 487.503 240.863C487.738 243.497 487.787 245.567 487.953 248.771L488.494 248.505C488.585 247.427 494.326 234.948 492.407 229.937C491.383 227.263 488.331 228.3 488.331 228.3C486.048 222.412 473.279 220.772 469.423 224.691C467.037 227.116 469.073 230.248 470.286 231.893Z" fill="#1D2D4E"/>
<path d="M485.291 244.595C488.484 246.337 490.475 239.043 487.247 238.226C485.135 237.691 484.646 240.672 484.646 240.672C484.646 240.672 483.678 243.715 485.291 244.595Z" fill="#FFA49A"/>
<path d="M514.255 294.576L514.25 294.571C514.245 288.197 509.758 277.196 509.167 275.902C507.683 272.618 497.34 278.772 498.073 281.179C498.948 284.054 503.242 293.78 503.248 293.796C498.732 294.88 491.318 297.429 486.849 298.945C486.849 298.945 483.906 299.763 482.323 299.721C480.74 299.679 478.573 298.891 477.615 298.66C476.657 298.429 473.172 300.664 472.58 301.012C471.947 301.385 472.516 302.085 473.698 302.012C474.233 301.979 475.129 301.733 475.854 301.509C475.261 301.841 474.748 302.129 474.552 302.241C473.969 302.574 472.809 305.579 472.602 305.915C472.394 306.25 473.717 306.417 474.363 305.771C474.714 305.42 475.242 304.695 475.655 304.102C475.254 304.964 474.903 305.805 474.802 305.968C474.594 306.304 475.761 306.366 476.407 305.72C476.846 305.281 477.682 304.21 478.179 303.559C477.855 304.524 477.384 306.028 477.563 306.131C477.828 306.284 478.469 306.115 478.922 305.49C479.113 305.226 479.33 304.839 479.52 304.477C479.865 304.688 480.249 304.874 480.686 305.01C483.615 305.927 485.924 303.86 487.617 303.623C490.824 303.528 495.768 303.375 499.508 303.238C505.699 303.01 509.478 301.773 511.991 300.677C515.137 299.308 514.255 294.576 514.255 294.576Z" fill="#FFA49A"/>
<path d="M480.687 300.192C480.837 300.134 480.976 300.075 481.115 300.015C481.036 300.051 480.963 300.084 480.892 300.105C480.815 300.13 480.742 300.162 480.687 300.192Z" fill="#D99490"/>
<path d="M489.878 256.045C489.878 256.045 490.146 256.452 489.47 255.267C489.181 254.76 488.385 253.768 488.385 253.768C488.385 253.768 487.484 256.51 480.372 257.942L481.528 262.239C481.528 262.239 487.103 260.464 489.878 256.045Z" fill="white"/>
<path d="M477.689 254.538C477.689 254.538 477.425 255.423 478.613 256.655C479.271 257.337 480.372 257.942 480.372 257.942L478.326 261.582C478.326 261.582 476.627 259.877 476.627 256.045C476.627 256.045 476.735 255.758 477.06 255.316C477.197 255.131 477.689 254.538 477.689 254.538Z" fill="white"/>
<path d="M484.35 308.075H467.385V305.993L484.373 306.471C484.807 306.483 485.152 306.838 485.152 307.273C485.152 307.716 484.793 308.075 484.35 308.075Z" fill="white"/>
<path d="M473.984 307.2H436.06C434.655 307.2 433.449 306.201 433.187 304.822L427.492 274.869C427.287 273.791 428.114 272.792 429.211 272.792H465.02C466.424 272.792 467.631 273.791 467.893 275.17L473.984 307.2Z" fill="white"/>
<path d="M471.244 308.075H434.378C433.296 308.075 432.367 307.306 432.165 306.243L426.273 275.252C426.117 274.429 426.748 273.666 427.586 273.666H464.452C465.534 273.666 466.463 274.435 466.665 275.498L472.557 306.489C472.714 307.312 472.082 308.075 471.244 308.075Z" fill="url(#paint51_linear_5_26)"/>
<path d="M501.16 262.599C501.16 262.599 506.842 268.101 509.157 274.389C511.532 280.837 512.282 282.899 512.282 282.899C512.282 282.899 506.824 287.803 499.574 288.054C499.574 288.054 493.742 277.61 493.116 272.791C492.491 267.972 495.62 259.464 501.16 262.599Z" fill="url(#paint52_linear_5_26)"/>
<path d="M443.425 308.075H441.404C441.404 308.075 441.091 308.295 441.248 308.644C441.404 308.993 442.489 309.349 442.919 309.431C444.342 309.702 445.717 309.454 445.717 309.454L443.425 308.075Z" fill="#CE8684"/>
<path d="M452.056 307.479C451.431 307.375 450.537 307.229 450.537 307.229L449.295 305.879C449.295 305.879 449.174 305.451 448.649 304.439C448.023 303.235 446.99 303.17 447.15 304.089C447.18 304.264 447.216 304.479 447.255 304.706C447.114 304.426 446.956 304.128 446.776 303.824C445.995 302.499 444.897 302.386 445.078 303.428C445.107 303.592 445.139 303.788 445.174 303.995C445.11 303.88 445.047 303.765 444.978 303.647C444.17 302.277 443.035 302.16 443.222 303.237C443.313 303.762 443.438 304.555 443.585 305.275C443.529 305.173 443.473 305.071 443.412 304.967C442.801 303.932 441.943 303.843 442.085 304.657C442.227 305.471 442.474 307.144 442.758 307.427C442.79 307.459 442.85 307.508 442.92 307.564H442.919C442.919 307.564 444.127 308.801 444.473 309.056C445.059 309.487 445.818 309.598 445.818 309.598C445.818 309.598 446.648 310.088 447.171 310.056C447.694 310.024 448.23 309.844 448.23 309.844C448.23 309.844 448.57 309.996 449.195 310.079C449.82 310.162 450.654 309.785 450.654 309.785C450.654 309.785 452.11 309.826 452.539 309.556C453.443 308.985 453.846 308.076 453.846 308.076C453.846 308.076 452.681 307.583 452.056 307.479Z" fill="#FFA49A"/>
<path d="M197.371 140.18H147.158C146.248 140.18 145.51 139.442 145.51 138.532C145.51 137.622 146.248 136.884 147.158 136.884H197.371C198.281 136.884 199.019 137.622 199.019 138.532C199.019 139.442 198.281 140.18 197.371 140.18Z" fill="url(#paint53_linear_5_26)"/>
<path d="M180.621 146.555H147.158C146.248 146.555 145.51 145.817 145.51 144.907C145.51 143.997 146.248 143.259 147.158 143.259H180.621C181.531 143.259 182.269 143.997 182.269 144.907C182.269 145.817 181.531 146.555 180.621 146.555Z" fill="url(#paint54_linear_5_26)"/>
<path d="M154.121 152.93H147.158C146.248 152.93 145.51 152.192 145.51 151.282C145.51 150.372 146.248 149.634 147.158 149.634H154.121C155.031 149.634 155.769 150.372 155.769 151.282C155.769 152.192 155.031 152.93 154.121 152.93Z" fill="url(#paint55_linear_5_26)"/>
<path d="M197.371 152.93H160.121C159.211 152.93 158.473 152.192 158.473 151.282C158.473 150.372 159.211 149.634 160.121 149.634H197.371C198.281 149.634 199.019 150.372 199.019 151.282C199.019 152.192 198.281 152.93 197.371 152.93Z" fill="url(#paint56_linear_5_26)"/>
<path d="M197.371 146.555H186.292C185.382 146.555 184.644 145.817 184.644 144.907C184.644 143.997 185.382 143.259 186.292 143.259H197.371C198.281 143.259 199.019 143.997 199.019 144.907C199.019 145.817 198.281 146.555 197.371 146.555Z" fill="url(#paint57_linear_5_26)"/>
<path d="M318.823 374.778H276.948C273.45 374.778 270.615 371.942 270.615 368.445V343.514C270.615 340.016 273.45 337.181 276.948 337.181H318.823C322.321 337.181 325.156 340.016 325.156 343.514V368.445C325.156 371.943 322.321 374.778 318.823 374.778Z" fill="url(#paint58_linear_5_26)"/>
<path d="M293.764 348.668L302.77 353.868C304.396 354.806 304.396 357.153 302.77 358.091L293.764 363.291C292.139 364.229 290.107 363.056 290.107 361.179V350.779C290.107 348.902 292.139 347.729 293.764 348.668Z" fill="white"/>
<path d="M203.893 231.055H145.427C141.077 231.055 137.551 227.529 137.551 223.179V209.229C137.551 204.879 141.077 201.354 145.427 201.354H203.893C208.243 201.354 211.769 204.88 211.769 209.229V223.179C211.769 227.529 208.243 231.055 203.893 231.055Z" fill="white"/>
<path d="M148.827 210.556C150.104 210.556 151.14 209.52 151.14 208.243C151.14 206.966 150.104 205.93 148.827 205.93C147.55 205.93 146.514 206.966 146.514 208.243C146.514 209.52 147.55 210.556 148.827 210.556Z" fill="url(#paint59_linear_5_26)"/>
<path d="M148.827 218.518C150.104 218.518 151.14 217.482 151.14 216.205C151.14 214.928 150.104 213.892 148.827 213.892C147.55 213.892 146.514 214.928 146.514 216.205C146.514 217.482 147.55 218.518 148.827 218.518Z" fill="url(#paint60_linear_5_26)"/>
<path d="M148.827 226.48C150.104 226.48 151.14 225.444 151.14 224.167C151.14 222.89 150.104 221.854 148.827 221.854C147.55 221.854 146.514 222.89 146.514 224.167C146.514 225.444 147.55 226.48 148.827 226.48Z" fill="url(#paint61_linear_5_26)"/>
<path d="M200.894 208.743H155.269C154.993 208.743 154.769 208.519 154.769 208.243C154.769 207.967 154.993 207.743 155.269 207.743H200.894C201.17 207.743 201.394 207.967 201.394 208.243C201.394 208.519 201.17 208.743 200.894 208.743Z" fill="url(#paint62_linear_5_26)"/>
<path d="M200.894 216.705H155.269C154.993 216.705 154.769 216.481 154.769 216.205C154.769 215.929 154.993 215.705 155.269 215.705H200.894C201.17 215.705 201.394 215.929 201.394 216.205C201.394 216.481 201.17 216.705 200.894 216.705Z" fill="url(#paint63_linear_5_26)"/>
<path d="M174.644 224.667H155.269C154.993 224.667 154.769 224.443 154.769 224.167C154.769 223.891 154.993 223.667 155.269 223.667H174.644C174.92 223.667 175.144 223.891 175.144 224.167C175.144 224.443 174.92 224.667 174.644 224.667Z" fill="url(#paint64_linear_5_26)"/>
<path d="M259.128 438.33H185.63C184.116 438.33 182.889 437.103 182.889 435.589V422.477C182.889 420.963 184.116 419.736 185.63 419.736H259.128C260.642 419.736 261.869 420.963 261.869 422.477V435.589C261.869 437.103 260.642 438.33 259.128 438.33Z" fill="url(#paint65_linear_5_26)"/>
<path d="M193.624 434.194H188.768C188.054 434.194 187.475 433.615 187.475 432.901V425.165C187.475 424.451 188.054 423.872 188.768 423.872H193.624C194.338 423.872 194.917 424.451 194.917 425.165V432.901C194.917 433.616 194.338 434.194 193.624 434.194Z" fill="url(#paint66_linear_5_26)"/>
<path d="M203.086 434.194H198.23C197.516 434.194 196.937 433.615 196.937 432.901V425.165C196.937 424.451 197.516 423.872 198.23 423.872H203.086C203.8 423.872 204.379 424.451 204.379 425.165V432.901C204.379 433.616 203.8 434.194 203.086 434.194Z" fill="url(#paint67_linear_5_26)"/>
<path d="M232.594 434.194H207.692C206.978 434.194 206.399 433.615 206.399 432.901V425.165C206.399 424.451 206.978 423.872 207.692 423.872H232.594C233.308 423.872 233.887 424.451 233.887 425.165V432.901C233.887 433.616 233.308 434.194 232.594 434.194Z" fill="white"/>
<path d="M241.85 429.049C241.85 430.515 240.662 431.703 239.196 431.703C237.73 431.703 236.542 430.515 236.542 429.049C236.542 427.583 237.73 426.395 239.196 426.395C240.662 426.395 241.85 427.583 241.85 429.049Z" fill="url(#paint68_linear_5_26)"/>
<path d="M249.09 429.049C249.09 430.515 247.902 431.703 246.436 431.703C244.97 431.703 243.782 430.515 243.782 429.049C243.782 427.583 244.97 426.395 246.436 426.395C247.902 426.395 249.09 427.583 249.09 429.049Z" fill="white"/>
<path d="M256.427 430.187H251.502C251.03 430.187 250.647 429.804 250.647 429.332V428.734C250.647 428.262 251.03 427.879 251.502 427.879H256.427C256.899 427.879 257.282 428.262 257.282 428.734V429.332C257.282 429.804 256.9 430.187 256.427 430.187Z" fill="url(#paint69_linear_5_26)"/>
<path d="M197.833 438.33H191.196V440.542H197.833V438.33Z" fill="url(#paint70_linear_5_26)"/>
<path d="M253.966 438.33H247.329V440.542H253.966V438.33Z" fill="url(#paint71_linear_5_26)"/>
<path d="M259.128 417.524H185.63C184.116 417.524 182.889 416.297 182.889 414.783V401.671C182.889 400.157 184.116 398.93 185.63 398.93H259.128C260.642 398.93 261.869 400.157 261.869 401.671V414.783C261.869 416.297 260.642 417.524 259.128 417.524Z" fill="url(#paint72_linear_5_26)"/>
<path d="M193.624 413.388H188.768C188.054 413.388 187.475 412.809 187.475 412.095V404.359C187.475 403.645 188.054 403.066 188.768 403.066H193.624C194.338 403.066 194.917 403.645 194.917 404.359V412.095C194.917 412.809 194.338 413.388 193.624 413.388Z" fill="url(#paint73_linear_5_26)"/>
<path d="M203.086 413.388H198.23C197.516 413.388 196.937 412.809 196.937 412.095V404.359C196.937 403.645 197.516 403.066 198.23 403.066H203.086C203.8 403.066 204.379 403.645 204.379 404.359V412.095C204.379 412.809 203.8 413.388 203.086 413.388Z" fill="white"/>
<path d="M232.594 413.388H207.692C206.978 413.388 206.399 412.809 206.399 412.095V404.359C206.399 403.645 206.978 403.066 207.692 403.066H232.594C233.308 403.066 233.887 403.645 233.887 404.359V412.095C233.887 412.809 233.308 413.388 232.594 413.388Z" fill="white"/>
<path d="M241.85 408.243C241.85 409.709 240.662 410.897 239.196 410.897C237.73 410.897 236.542 409.709 236.542 408.243C236.542 406.777 237.73 405.589 239.196 405.589C240.662 405.589 241.85 406.777 241.85 408.243Z" fill="url(#paint74_linear_5_26)"/>
<path d="M249.09 408.243C249.09 409.709 247.902 410.897 246.436 410.897C244.97 410.897 243.782 409.709 243.782 408.243C243.782 406.777 244.97 405.589 246.436 405.589C247.902 405.589 249.09 406.777 249.09 408.243Z" fill="url(#paint75_linear_5_26)"/>
<path d="M256.427 409.381H251.502C251.03 409.381 250.647 408.998 250.647 408.526V407.928C250.647 407.456 251.03 407.073 251.502 407.073H256.427C256.899 407.073 257.282 407.456 257.282 407.928V408.526C257.282 408.999 256.9 409.381 256.427 409.381Z" fill="white"/>
<path d="M197.833 417.524H191.196V419.736H197.833V417.524Z" fill="url(#paint76_linear_5_26)"/>
<path d="M253.966 417.524H247.329V419.736H253.966V417.524Z" fill="url(#paint77_linear_5_26)"/>
<path d="M65.25 441.009H584.75" stroke="#232230" stroke-miterlimit="10" stroke-linecap="round" stroke-linejoin="round"/>
<defs>
<linearGradient id="paint0_linear_5_26" x1="310.566" y1="69.252" x2="310.566" y2="450.613" gradientUnits="userSpaceOnUse">
<stop stop-color="#DFEDF2"/>
<stop offset="1" stop-color="#E8F8FF"/>
</linearGradient>
<linearGradient id="paint1_linear_5_26" x1="139.365" y1="-259.322" x2="139.365" y2="122.04" gradientUnits="userSpaceOnUse">
<stop stop-color="#DFEDF2"/>
<stop offset="1" stop-color="#E8F8FF"/>
</linearGradient>
<linearGradient id="paint2_linear_5_26" x1="595.365" y1="306.471" x2="595.365" y2="687.833" gradientUnits="userSpaceOnUse">
<stop stop-color="#DFEDF2"/>
<stop offset="1" stop-color="#E8F8FF"/>
</linearGradient>
<linearGradient id="paint3_linear_5_26" x1="509.106" y1="93.2393" x2="509.106" y2="272.414" gradientUnits="userSpaceOnUse">
<stop stop-color="#DFEDF2"/>
<stop offset="1" stop-color="#E8F8FF"/>
</linearGradient>
<linearGradient id="paint4_linear_5_26" x1="559.819" y1="421.531" x2="574.569" y2="405.781" gradientUnits="userSpaceOnUse">
<stop stop-color="#DFEDF2"/>
<stop offset="1" stop-color="#E8F8FF"/>
</linearGradient>
<linearGradient id="paint5_linear_5_26" x1="437.233" y1="204.351" x2="340.566" y2="109.685" gradientUnits="userSpaceOnUse">
<stop stop-color="#3949B2"/>
<stop offset="1" stop-color="#5CA5F7"/>
</linearGradient>
<linearGradient id="paint6_linear_5_26" x1="325" y1="144.055" x2="325" y2="384.064" gradientUnits="userSpaceOnUse">
<stop stop-color="#CBE1F2"/>
<stop offset="1" stop-color="#AED2ED"/>
</linearGradient>
<linearGradient id="paint7_linear_5_26" x1="324.999" y1="380.555" x2="324.999" y2="436.058" gradientUnits="userSpaceOnUse">
<stop stop-color="#CBE1F2"/>
<stop offset="1" stop-color="#AED2ED"/>
</linearGradient>
<linearGradient id="paint8_linear_5_26" x1="299.159" y1="395.917" x2="350.839" y2="395.917" gradientUnits="userSpaceOnUse">
<stop stop-color="#CBE1F2"/>
<stop offset="1" stop-color="#AED2ED"/>
</linearGradient>
<linearGradient id="paint9_linear_5_26" x1="325" y1="426.555" x2="325" y2="443.585" gradientUnits="userSpaceOnUse">
<stop stop-color="#CBE1F2"/>
<stop offset="1" stop-color="#AED2ED"/>
</linearGradient>
<linearGradient id="paint10_linear_5_26" x1="222.994" y1="261.349" x2="427.006" y2="261.349" gradientUnits="userSpaceOnUse">
<stop stop-color="#71D2F9"/>
<stop offset="1" stop-color="#51B9F8"/>
</linearGradient>
<linearGradient id="paint11_linear_5_26" x1="145.51" y1="330.093" x2="145.51" y2="425.711" gradientUnits="userSpaceOnUse">
<stop stop-color="#71D2F9"/>
<stop offset="1" stop-color="#51B9F8"/>
</linearGradient>
<linearGradient id="paint12_linear_5_26" x1="145.51" y1="439.416" x2="145.51" y2="427.653" gradientUnits="userSpaceOnUse">
<stop stop-color="#CBE1F2"/>
<stop offset="1" stop-color="#AED2ED"/>
</linearGradient>
<linearGradient id="paint13_linear_5_26" x1="145.51" y1="433.937" x2="145.51" y2="313.881" gradientUnits="userSpaceOnUse">
<stop stop-color="#DFEDF2"/>
<stop offset="1" stop-color="#E8F8FF"/>
</linearGradient>
<linearGradient id="paint14_linear_5_26" x1="156.061" y1="433.935" x2="156.061" y2="313.882" gradientUnits="userSpaceOnUse">
<stop stop-color="#DFEDF2"/>
<stop offset="1" stop-color="#E8F8FF"/>
</linearGradient>
<linearGradient id="paint15_linear_5_26" x1="145.51" y1="407.854" x2="145.51" y2="357.054" gradientUnits="userSpaceOnUse">
<stop stop-color="#DFEDF2"/>
<stop offset="1" stop-color="#E8F8FF"/>
</linearGradient>
<linearGradient id="paint16_linear_5_26" x1="145.25" y1="404.104" x2="145.25" y2="332.326" gradientUnits="userSpaceOnUse">
<stop stop-color="#283770"/>
<stop offset="1" stop-color="#141A5A"/>
</linearGradient>
<linearGradient id="paint17_linear_5_26" x1="479.766" y1="359.055" x2="479.766" y2="430.555" gradientUnits="userSpaceOnUse">
<stop stop-color="#71D2F9"/>
<stop offset="1" stop-color="#51B9F8"/>
</linearGradient>
<linearGradient id="paint18_linear_5_26" x1="112.077" y1="136.469" x2="235.977" y2="136.469" gradientUnits="userSpaceOnUse">
<stop stop-color="#71D2F9"/>
<stop offset="1" stop-color="#51B9F8"/>
</linearGradient>
<linearGradient id="paint19_linear_5_26" x1="nan" y1="nan" x2="nan" y2="nan" gradientUnits="userSpaceOnUse">
<stop stop-color="#71D2F9"/>
<stop offset="1" stop-color="#51B9F8"/>
</linearGradient>
<linearGradient id="paint20_linear_5_26" x1="145.01" y1="294.979" x2="224.043" y2="294.979" gradientUnits="userSpaceOnUse">
<stop stop-color="#71D2F9"/>
<stop offset="1" stop-color="#51B9F8"/>
</linearGradient>
<linearGradient id="paint21_linear_5_26" x1="nan" y1="nan" x2="nan" y2="nan" gradientUnits="userSpaceOnUse">
<stop stop-color="#71D2F9"/>
<stop offset="1" stop-color="#51B9F8"/>
</linearGradient>
<linearGradient id="paint22_linear_5_26" x1="220.942" y1="263.721" x2="226.144" y2="263.721" gradientUnits="userSpaceOnUse">
<stop stop-color="#71D2F9"/>
<stop offset="1" stop-color="#51B9F8"/>
</linearGradient>
<linearGradient id="paint23_linear_5_26" x1="141.635" y1="330.555" x2="149.385" y2="330.555" gradientUnits="userSpaceOnUse">
<stop stop-color="#71D2F9"/>
<stop offset="1" stop-color="#51B9F8"/>
</linearGradient>
<linearGradient id="paint24_linear_5_26" x1="nan" y1="nan" x2="nan" y2="nan" gradientUnits="userSpaceOnUse">
<stop stop-color="#71D2F9"/>
<stop offset="1" stop-color="#51B9F8"/>
</linearGradient>
<linearGradient id="paint25_linear_5_26" x1="275.603" y1="142.238" x2="275.603" y2="217.205" gradientUnits="userSpaceOnUse">
<stop stop-color="#71D2F9"/>
<stop offset="1" stop-color="#51B9F8"/>
</linearGradient>
<linearGradient id="paint26_linear_5_26" x1="nan" y1="nan" x2="nan" y2="nan" gradientUnits="userSpaceOnUse">
<stop stop-color="#71D2F9"/>
<stop offset="1" stop-color="#51B9F8"/>
</linearGradient>
<linearGradient id="paint27_linear_5_26" x1="304.269" y1="214.104" x2="304.269" y2="219.306" gradientUnits="userSpaceOnUse">
<stop stop-color="#71D2F9"/>
<stop offset="1" stop-color="#51B9F8"/>
</linearGradient>
<linearGradient id="paint28_linear_5_26" x1="242.476" y1="138.863" x2="242.476" y2="146.613" gradientUnits="userSpaceOnUse">
<stop stop-color="#71D2F9"/>
<stop offset="1" stop-color="#51B9F8"/>
</linearGradient>
<linearGradient id="paint29_linear_5_26" x1="nan" y1="nan" x2="nan" y2="nan" gradientUnits="userSpaceOnUse">
<stop stop-color="#71D2F9"/>
<stop offset="1" stop-color="#51B9F8"/>
</linearGradient>
<linearGradient id="paint30_linear_5_26" x1="nan" y1="nan" x2="nan" y2="nan" gradientUnits="userSpaceOnUse">
<stop stop-color="#71D2F9"/>
<stop offset="1" stop-color="#51B9F8"/>
</linearGradient>
<linearGradient id="paint31_linear_5_26" x1="nan" y1="nan" x2="nan" y2="nan" gradientUnits="userSpaceOnUse">
<stop stop-color="#71D2F9"/>
<stop offset="1" stop-color="#51B9F8"/>
</linearGradient>
<linearGradient id="paint32_linear_5_26" x1="247.882" y1="386.769" x2="247.882" y2="394.519" gradientUnits="userSpaceOnUse">
<stop stop-color="#71D2F9"/>
<stop offset="1" stop-color="#51B9F8"/>
</linearGradient>
<linearGradient id="paint33_linear_5_26" x1="247.675" y1="303.392" x2="247.675" y2="308.594" gradientUnits="userSpaceOnUse">
<stop stop-color="#71D2F9"/>
<stop offset="1" stop-color="#51B9F8"/>
</linearGradient>
<linearGradient id="paint34_linear_5_26" x1="nan" y1="nan" x2="nan" y2="nan" gradientUnits="userSpaceOnUse">
<stop stop-color="#71D2F9"/>
<stop offset="1" stop-color="#51B9F8"/>
</linearGradient>
<linearGradient id="paint35_linear_5_26" x1="438.468" y1="241.537" x2="438.468" y2="266.297" gradientUnits="userSpaceOnUse">
<stop stop-color="#71D2F9"/>
<stop offset="1" stop-color="#51B9F8"/>
</linearGradient>
<linearGradient id="paint36_linear_5_26" x1="nan" y1="nan" x2="nan" y2="nan" gradientUnits="userSpaceOnUse">
<stop stop-color="#71D2F9"/>
<stop offset="1" stop-color="#51B9F8"/>
</linearGradient>
<linearGradient id="paint37_linear_5_26" x1="446.019" y1="261.922" x2="446.019" y2="269.672" gradientUnits="userSpaceOnUse">
<stop stop-color="#71D2F9"/>
<stop offset="1" stop-color="#51B9F8"/>
</linearGradient>
<linearGradient id="paint38_linear_5_26" x1="426.457" y1="239.436" x2="426.457" y2="244.638" gradientUnits="userSpaceOnUse">
<stop stop-color="#71D2F9"/>
<stop offset="1" stop-color="#51B9F8"/>
</linearGradient>
<linearGradient id="paint39_linear_5_26" x1="nan" y1="nan" x2="nan" y2="nan" gradientUnits="userSpaceOnUse">
<stop stop-color="#71D2F9"/>
<stop offset="1" stop-color="#51B9F8"/>
</linearGradient>
<linearGradient id="paint40_linear_5_26" x1="395.884" y1="305.493" x2="395.884" y2="419.889" gradientUnits="userSpaceOnUse">
<stop stop-color="#71D2F9"/>
<stop offset="1" stop-color="#51B9F8"/>
</linearGradient>
<linearGradient id="paint41_linear_5_26" x1="nan" y1="nan" x2="nan" y2="nan" gradientUnits="userSpaceOnUse">
<stop stop-color="#71D2F9"/>
<stop offset="1" stop-color="#51B9F8"/>
</linearGradient>
<linearGradient id="paint42_linear_5_26" x1="381.769" y1="303.392" x2="381.769" y2="308.594" gradientUnits="userSpaceOnUse">
<stop stop-color="#71D2F9"/>
<stop offset="1" stop-color="#51B9F8"/>
</linearGradient>
<linearGradient id="paint43_linear_5_26" x1="413.019" y1="415.514" x2="413.019" y2="423.264" gradientUnits="userSpaceOnUse">
<stop stop-color="#71D2F9"/>
<stop offset="1" stop-color="#51B9F8"/>
</linearGradient>
<linearGradient id="paint44_linear_5_26" x1="410.798" y1="190.054" x2="476.122" y2="190.054" gradientUnits="userSpaceOnUse">
<stop stop-color="#71D2F9"/>
<stop offset="1" stop-color="#51B9F8"/>
</linearGradient>
<linearGradient id="paint45_linear_5_26" x1="445.134" y1="173.383" x2="445.134" y2="203.288" gradientUnits="userSpaceOnUse">
<stop stop-color="#71D2F9"/>
<stop offset="1" stop-color="#51B9F8"/>
</linearGradient>
<linearGradient id="paint46_linear_5_26" x1="430.051" y1="173.383" x2="430.051" y2="203.288" gradientUnits="userSpaceOnUse">
<stop stop-color="#71D2F9"/>
<stop offset="1" stop-color="#51B9F8"/>
</linearGradient>
<linearGradient id="paint47_linear_5_26" x1="460.216" y1="173.383" x2="460.216" y2="203.288" gradientUnits="userSpaceOnUse">
<stop stop-color="#71D2F9"/>
<stop offset="1" stop-color="#51B9F8"/>
</linearGradient>
<linearGradient id="paint48_linear_5_26" x1="485.785" y1="321.555" x2="485.785" y2="433.895" gradientUnits="userSpaceOnUse">
<stop stop-color="#283770"/>
<stop offset="1" stop-color="#141A5A"/>
</linearGradient>
<linearGradient id="paint49_linear_5_26" x1="465.22" y1="253.098" x2="465.22" y2="278.93" gradientUnits="userSpaceOnUse">
<stop stop-color="#49A5F7"/>
<stop offset="1" stop-color="#1C6CEB"/>
</linearGradient>
<linearGradient id="paint50_linear_5_26" x1="484.358" y1="253.055" x2="484.358" y2="317.743" gradientUnits="userSpaceOnUse">
<stop stop-color="#49A5F7"/>
<stop offset="1" stop-color="#1C6CEB"/>
</linearGradient>
<linearGradient id="paint51_linear_5_26" x1="449.416" y1="265.416" x2="449.416" y2="315.506" gradientUnits="userSpaceOnUse">
<stop stop-color="#71D2F9"/>
<stop offset="1" stop-color="#51B9F8"/>
</linearGradient>
<linearGradient id="paint52_linear_5_26" x1="502.66" y1="253.055" x2="502.66" y2="317.743" gradientUnits="userSpaceOnUse">
<stop stop-color="#49A5F7"/>
<stop offset="1" stop-color="#1C6CEB"/>
</linearGradient>
<linearGradient id="paint53_linear_5_26" x1="138.943" y1="126.702" x2="215.693" y2="153.952" gradientUnits="userSpaceOnUse">
<stop stop-color="#71D2F9"/>
<stop offset="1" stop-color="#51B9F8"/>
</linearGradient>
<linearGradient id="paint54_linear_5_26" x1="135.996" y1="135.004" x2="212.746" y2="162.254" gradientUnits="userSpaceOnUse">
<stop stop-color="#71D2F9"/>
<stop offset="1" stop-color="#51B9F8"/>
</linearGradient>
<linearGradient id="paint55_linear_5_26" x1="132.502" y1="144.843" x2="209.252" y2="172.093" gradientUnits="userSpaceOnUse">
<stop stop-color="#71D2F9"/>
<stop offset="1" stop-color="#51B9F8"/>
</linearGradient>
<linearGradient id="paint56_linear_5_26" x1="135.649" y1="135.981" x2="212.399" y2="163.231" gradientUnits="userSpaceOnUse">
<stop stop-color="#71D2F9"/>
<stop offset="1" stop-color="#51B9F8"/>
</linearGradient>
<linearGradient id="paint57_linear_5_26" x1="139.124" y1="126.194" x2="215.874" y2="153.444" gradientUnits="userSpaceOnUse">
<stop stop-color="#71D2F9"/>
<stop offset="1" stop-color="#51B9F8"/>
</linearGradient>
<linearGradient id="paint58_linear_5_26" x1="286.73" y1="342.726" x2="323.063" y2="385.892" gradientUnits="userSpaceOnUse">
<stop stop-color="#71D2F9"/>
<stop offset="1" stop-color="#51B9F8"/>
</linearGradient>
<linearGradient id="paint59_linear_5_26" x1="148.827" y1="228.889" x2="148.827" y2="206.102" gradientUnits="userSpaceOnUse">
<stop stop-color="#CBE1F2"/>
<stop offset="1" stop-color="#AED2ED"/>
</linearGradient>
<linearGradient id="paint60_linear_5_26" x1="148.827" y1="228.889" x2="148.827" y2="206.102" gradientUnits="userSpaceOnUse">
<stop stop-color="#CBE1F2"/>
<stop offset="1" stop-color="#AED2ED"/>
</linearGradient>
<linearGradient id="paint61_linear_5_26" x1="148.827" y1="228.888" x2="148.827" y2="206.102" gradientUnits="userSpaceOnUse">
<stop stop-color="#CBE1F2"/>
<stop offset="1" stop-color="#AED2ED"/>
</linearGradient>
<linearGradient id="paint62_linear_5_26" x1="204.315" y1="221.739" x2="161.065" y2="199.489" gradientUnits="userSpaceOnUse">
<stop stop-color="#CBE1F2"/>
<stop offset="1" stop-color="#AED2ED"/>
</linearGradient>
<linearGradient id="paint63_linear_5_26" x1="201.076" y1="228.034" x2="157.826" y2="205.784" gradientUnits="userSpaceOnUse">
<stop stop-color="#CBE1F2"/>
<stop offset="1" stop-color="#AED2ED"/>
</linearGradient>
<linearGradient id="paint64_linear_5_26" x1="195.09" y1="239.669" x2="151.84" y2="217.419" gradientUnits="userSpaceOnUse">
<stop stop-color="#CBE1F2"/>
<stop offset="1" stop-color="#AED2ED"/>
</linearGradient>
<linearGradient id="paint65_linear_5_26" x1="184.436" y1="429.033" x2="276.842" y2="429.033" gradientUnits="userSpaceOnUse">
<stop stop-color="#3949B2"/>
<stop offset="1" stop-color="#5CA5F7"/>
</linearGradient>
<linearGradient id="paint66_linear_5_26" x1="191.196" y1="423.555" x2="191.196" y2="433.181" gradientUnits="userSpaceOnUse">
<stop stop-color="#71D2F9"/>
<stop offset="1" stop-color="#51B9F8"/>
</linearGradient>
<linearGradient id="paint67_linear_5_26" x1="200.658" y1="423.555" x2="200.658" y2="433.181" gradientUnits="userSpaceOnUse">
<stop stop-color="#71D2F9"/>
<stop offset="1" stop-color="#51B9F8"/>
</linearGradient>
<linearGradient id="paint68_linear_5_26" x1="258.854" y1="429.049" x2="189.752" y2="429.049" gradientUnits="userSpaceOnUse">
<stop stop-color="#CBE1F2"/>
<stop offset="1" stop-color="#AED2ED"/>
</linearGradient>
<linearGradient id="paint69_linear_5_26" x1="258.854" y1="429.033" x2="189.753" y2="429.033" gradientUnits="userSpaceOnUse">
<stop stop-color="#CBE1F2"/>
<stop offset="1" stop-color="#AED2ED"/>
</linearGradient>
<linearGradient id="paint70_linear_5_26" x1="199.458" y1="436.42" x2="191.591" y2="441.22" gradientUnits="userSpaceOnUse">
<stop stop-color="#0B1B6A"/>
<stop offset="1" stop-color="#3949B2"/>
</linearGradient>
<linearGradient id="paint71_linear_5_26" x1="255.591" y1="436.42" x2="247.724" y2="441.22" gradientUnits="userSpaceOnUse">
<stop stop-color="#0B1B6A"/>
<stop offset="1" stop-color="#3949B2"/>
</linearGradient>
<linearGradient id="paint72_linear_5_26" x1="184.436" y1="408.227" x2="276.842" y2="408.227" gradientUnits="userSpaceOnUse">
<stop stop-color="#3949B2"/>
<stop offset="1" stop-color="#5CA5F7"/>
</linearGradient>
<linearGradient id="paint73_linear_5_26" x1="186.769" y1="408.227" x2="210.188" y2="408.227" gradientUnits="userSpaceOnUse">
<stop stop-color="#CBE1F2"/>
<stop offset="1" stop-color="#AED2ED"/>
</linearGradient>
<linearGradient id="paint74_linear_5_26" x1="239.196" y1="403.805" x2="239.196" y2="411.309" gradientUnits="userSpaceOnUse">
<stop stop-color="#71D2F9"/>
<stop offset="1" stop-color="#51B9F8"/>
</linearGradient>
<linearGradient id="paint75_linear_5_26" x1="246.436" y1="403.805" x2="246.436" y2="411.309" gradientUnits="userSpaceOnUse">
<stop stop-color="#71D2F9"/>
<stop offset="1" stop-color="#51B9F8"/>
</linearGradient>
<linearGradient id="paint76_linear_5_26" x1="199.458" y1="415.614" x2="191.591" y2="420.414" gradientUnits="userSpaceOnUse">
<stop stop-color="#0B1B6A"/>
<stop offset="1" stop-color="#3949B2"/>
</linearGradient>
<linearGradient id="paint77_linear_5_26" x1="255.591" y1="415.614" x2="247.724" y2="420.414" gradientUnits="userSpaceOnUse">
<stop stop-color="#0B1B6A"/>
<stop offset="1" stop-color="#3949B2"/>
</linearGradient>
</defs>
</svg>
