<svg width="2432" height="1442" viewBox="0 0 2432 1442" fill="none" xmlns="http://www.w3.org/2000/svg">
<g clip-path="url(#clip0_5_201)">
<rect width="2432" height="1442" fill="white"/>
<rect width="2432" height="1442" fill="white"/>
<path fill-rule="evenodd" clip-rule="evenodd" d="M282.282 398.651C290.915 405.665 294.154 405.13 310.366 404.049L463.199 394.872C466.44 394.872 463.745 391.638 462.664 391.101L437.282 372.751C432.418 368.975 425.938 364.651 413.52 365.733L265.531 376.526C260.134 377.062 259.056 379.76 261.205 381.923L282.282 398.651ZM291.458 434.269V595.076C291.458 603.719 295.777 606.952 305.497 606.417L473.461 596.698C483.186 596.164 484.269 590.219 484.269 583.199V423.47C484.269 416.461 481.573 412.682 475.62 413.221L300.096 423.47C293.618 424.015 291.458 427.255 291.458 434.269ZM457.271 442.895C458.348 447.757 457.271 452.614 452.401 453.16L444.308 454.773V573.491C437.282 577.267 430.802 579.427 425.403 579.427C416.758 579.427 414.593 576.726 408.118 568.637L355.182 485.533V565.938L371.933 569.718C371.933 569.718 371.933 579.427 358.418 579.427L321.161 581.588C320.079 579.427 321.161 574.035 324.94 572.955L334.663 570.26V463.949L321.164 462.868C320.081 458.006 322.777 450.996 330.344 450.453L370.312 447.758L425.403 531.944V457.471L411.357 455.859C410.279 449.916 414.593 445.6 419.995 445.065L457.271 442.895ZM253.106 361.957L407.037 350.621C425.941 349 430.804 350.086 442.685 358.716L491.822 393.253C499.93 399.191 502.632 400.808 502.632 407.282V596.698C502.632 608.569 498.308 615.59 483.189 616.664L304.427 627.459C293.078 628 287.676 626.383 281.732 618.823L245.547 571.875C239.064 563.232 236.367 556.767 236.367 549.203V380.838C236.367 371.13 240.693 363.032 253.106 361.957Z" fill="black"/>
<g clip-path="url(#clip1_5_201)">
<path d="M1229.19 563.878C1231.4 557.223 1232.17 550.173 1231.43 543.2C1230.7 536.226 1228.49 529.489 1224.94 523.438C1214.16 504.673 1192.49 495.02 1171.32 499.556C1165.46 493.039 1157.99 488.178 1149.66 485.461C1141.32 482.745 1132.42 482.269 1123.84 484.081C1115.27 485.893 1107.32 489.929 1100.79 495.784C1094.27 501.639 1089.4 509.106 1086.68 517.437C1079.81 518.846 1073.32 521.705 1067.64 525.824C1061.96 529.942 1057.23 535.225 1053.75 541.319C1042.85 560.054 1045.33 583.686 1059.87 599.759C1057.65 606.411 1056.88 613.459 1057.61 620.433C1058.33 627.407 1060.54 634.146 1064.08 640.198C1074.88 658.97 1096.56 668.622 1117.74 664.08C1122.4 669.322 1128.12 673.511 1134.52 676.366C1140.93 679.222 1147.87 680.678 1154.88 680.639C1176.57 680.658 1195.79 666.657 1202.42 646.004C1209.29 644.592 1215.78 641.732 1221.46 637.614C1227.14 633.496 1231.87 628.214 1235.35 622.122C1246.12 603.42 1243.63 579.916 1229.19 563.878ZM1154.88 667.704C1146.22 667.717 1137.83 664.683 1131.18 659.133L1132.35 658.47L1171.71 635.757C1172.69 635.183 1173.5 634.363 1174.07 633.38C1174.64 632.396 1174.94 631.282 1174.95 630.147V574.669L1191.59 584.292C1191.75 584.376 1191.87 584.535 1191.9 584.72V630.692C1191.86 651.115 1175.31 667.661 1154.88 667.704ZM1075.3 633.731C1070.96 626.234 1069.4 617.447 1070.9 608.914L1072.07 609.615L1111.47 632.329C1112.44 632.901 1113.55 633.202 1114.68 633.202C1115.81 633.202 1116.92 632.901 1117.9 632.329L1166.02 604.59V623.796C1166.02 623.896 1165.99 623.993 1165.94 624.081C1165.9 624.168 1165.83 624.244 1165.75 624.303L1125.89 647.289C1108.17 657.492 1085.54 651.425 1075.3 633.731ZM1064.94 548.02C1069.31 540.475 1076.21 534.72 1084.42 531.774V578.525C1084.41 579.655 1084.7 580.768 1085.26 581.748C1085.82 582.727 1086.64 583.539 1087.62 584.097L1135.51 611.719L1118.87 621.342C1118.78 621.39 1118.68 621.414 1118.58 621.414C1118.48 621.414 1118.38 621.39 1118.29 621.342L1078.5 598.396C1060.82 588.15 1054.76 565.54 1064.94 547.826V548.02ZM1201.64 579.773L1153.59 551.877L1170.19 542.294C1170.28 542.246 1170.38 542.221 1170.49 542.221C1170.59 542.221 1170.69 542.246 1170.78 542.294L1210.56 565.28C1216.65 568.789 1221.61 573.956 1224.86 580.178C1228.12 586.399 1229.54 593.418 1228.95 600.416C1228.37 607.413 1225.81 614.1 1221.56 619.696C1217.32 625.292 1211.57 629.565 1204.99 632.017V585.266C1204.96 584.138 1204.63 583.039 1204.04 582.076C1203.46 581.113 1202.63 580.319 1201.64 579.773ZM1218.2 554.878L1217.03 554.176L1177.71 531.268C1176.73 530.693 1175.62 530.389 1174.48 530.389C1173.34 530.389 1172.23 530.693 1171.24 531.268L1123.16 559.008V539.801C1123.15 539.703 1123.16 539.605 1123.2 539.516C1123.25 539.427 1123.31 539.35 1123.39 539.295L1163.18 516.347C1169.28 512.835 1176.25 511.132 1183.28 511.436C1190.31 511.74 1197.11 514.039 1202.88 518.064C1208.65 522.089 1213.16 527.675 1215.87 534.166C1218.58 540.658 1219.39 547.788 1218.2 554.722L1218.2 554.878ZM1114.08 588.928L1097.44 579.344C1097.35 579.294 1097.28 579.226 1097.23 579.145C1097.18 579.064 1097.14 578.972 1097.13 578.876V533.022C1097.13 525.987 1099.15 519.101 1102.93 513.168C1106.71 507.234 1112.1 502.499 1118.47 499.516C1124.84 496.533 1131.93 495.425 1138.91 496.322C1145.89 497.219 1152.47 500.084 1157.88 504.581L1156.71 505.244L1117.35 527.957C1116.37 528.532 1115.56 529.351 1114.99 530.334C1114.42 531.318 1114.12 532.432 1114.12 533.567L1114.08 588.928ZM1123.12 569.448L1144.55 557.098L1166.02 569.448V594.148L1144.63 606.499L1123.16 594.148L1123.12 569.448Z" fill="black"/>
</g>
<path d="M812 1155.8L739.2 1185.9C735.1 1187.6 735.2 1193.3 739.3 1195L812.5 1224C818.9 1226.6 826.1 1226.6 832.5 1224L905.7 1195C909.8 1193.4 909.8 1187.6 905.8 1185.9L832.8 1155.8C826.2 1153 818.7 1153 812 1155.8Z" fill="#FCB400"/>
<path d="M828.9 1239.9V1312.4C828.9 1315.8 832.4 1318.2 835.6 1316.9L917.2 1285.2C919.1 1284.5 920.3 1282.7 920.3 1280.7V1208.2C920.3 1204.8 916.8 1202.4 913.6 1203.7L832 1235.3C830.1 1236.1 828.9 1237.9 828.9 1239.9Z" fill="#18BFFF"/>
<path d="M809.9 1243.6L785.7 1255.3L783.2 1256.5L732.1 1281C728.9 1282.6 724.7 1280.2 724.7 1276.6V1208.5C724.7 1207.2 725.4 1206.1 726.3 1205.2C726.7 1204.8 727.1 1204.5 727.5 1204.3C728.7 1203.6 730.5 1203.4 731.9 1204L809.4 1234.7C813.4 1236.2 813.7 1241.8 809.9 1243.6Z" fill="#F82B60"/>
<path d="M809.9 1243.6L785.7 1255.3L726.3 1205.3C726.7 1204.9 727.1 1204.6 727.5 1204.4C728.7 1203.7 730.5 1203.5 731.9 1204.1L809.4 1234.8C813.4 1236.2 813.7 1241.8 809.9 1243.6Z" fill="#BA1E45"/>
<g clip-path="url(#clip2_5_201)">
<path d="M1187.58 883.129C1181.99 888.087 1175.01 894.256 1162.32 894.256H1154.75C1145.58 894.256 1137.24 890.932 1131.27 884.897C1125.44 879.003 1122.23 870.934 1122.23 862.176V851.824C1122.23 843.066 1125.44 834.997 1131.27 829.103C1137.24 823.068 1145.58 819.744 1154.75 819.744H1162.32C1175.01 819.744 1181.98 825.913 1187.58 830.871C1193.39 836.012 1198.4 840.451 1211.77 840.451C1213.81 840.451 1215.84 840.289 1217.86 839.964C1217.86 839.925 1217.83 839.889 1217.81 839.849C1217.01 837.864 1216.07 835.937 1215 834.084L1206.06 818.627C1202.04 811.66 1196.24 805.874 1189.26 801.851C1182.28 797.828 1174.37 795.71 1166.31 795.709H1148.44C1140.38 795.71 1132.46 797.828 1125.49 801.851C1118.51 805.874 1112.71 811.66 1108.68 818.627L1099.75 834.084C1095.72 841.051 1093.6 848.955 1093.6 857C1093.6 865.045 1095.72 872.949 1099.75 879.916L1108.68 895.373C1112.71 902.34 1118.51 908.125 1125.49 912.148C1132.46 916.17 1140.38 918.288 1148.44 918.288H1166.31C1174.37 918.288 1182.28 916.17 1189.26 912.148C1196.24 908.125 1202.03 902.34 1206.06 895.373L1215 879.916C1216.07 878.063 1217.01 876.136 1217.81 874.151C1217.81 874.111 1217.84 874.075 1217.86 874.036C1215.84 873.711 1213.81 873.549 1211.77 873.549C1198.4 873.549 1193.39 877.988 1187.58 883.129Z" fill="#006BFF"/>
<path d="M1162.32 829.12H1154.75C1140.79 829.12 1131.62 839.074 1131.62 851.818V862.169C1131.62 874.913 1140.79 884.867 1154.75 884.867H1162.32C1182.66 884.867 1181.07 864.17 1211.77 864.17C1214.68 864.167 1217.58 864.432 1220.45 864.962C1221.38 859.696 1221.38 854.308 1220.45 849.042C1217.58 849.573 1214.68 849.84 1211.77 849.837C1181.06 849.833 1182.66 829.12 1162.32 829.12Z" fill="#006BFF"/>
<path d="M1238.09 872.528C1232.86 868.709 1226.82 866.125 1220.45 864.972C1220.45 865.024 1220.43 865.077 1220.42 865.126C1219.87 868.18 1219.01 871.17 1217.86 874.049C1223.13 874.863 1228.12 876.917 1232.44 880.041C1232.44 880.087 1232.42 880.133 1232.4 880.182C1229.95 888.116 1226.25 895.609 1221.45 902.381C1216.69 909.089 1210.92 915.017 1204.34 919.95C1188.4 931.92 1168.51 937.406 1148.68 935.302C1128.85 933.197 1110.56 923.658 1097.5 908.611C1084.44 893.563 1077.59 874.129 1078.32 854.231C1079.06 834.334 1087.33 815.456 1101.46 801.409C1111.06 791.829 1122.98 784.889 1136.05 781.262C1149.13 777.634 1162.93 777.442 1176.1 780.703C1189.28 783.965 1201.38 790.57 1211.25 799.879C1221.11 809.187 1228.4 820.882 1232.41 833.831C1232.43 833.88 1232.44 833.926 1232.45 833.972C1228.13 837.097 1223.13 839.15 1217.86 839.961C1219.01 842.843 1219.87 845.835 1220.42 848.89C1220.42 848.94 1220.42 848.989 1220.45 849.035C1226.82 847.884 1232.86 845.3 1238.09 841.479C1243.12 837.763 1242.14 833.565 1241.38 831.081C1230.29 795.124 1196.77 769 1157.13 769C1108.46 769 1069 808.4 1069 856.998C1069 905.597 1108.46 945 1157.13 945C1196.77 945 1230.29 918.876 1241.36 882.929C1242.14 880.445 1243.12 876.247 1238.09 872.528Z" fill="#006BFF"/>
<path d="M1217.86 839.961C1215.84 840.285 1213.81 840.448 1211.77 840.447C1198.4 840.447 1193.39 836.009 1187.58 830.868C1181.99 825.91 1175.01 819.74 1162.32 819.74H1154.75C1145.58 819.74 1137.24 823.065 1131.27 829.1C1125.44 834.994 1122.23 843.062 1122.23 851.821V862.173C1122.23 870.931 1125.44 879 1131.27 884.893C1137.24 890.928 1145.58 894.253 1154.75 894.253H1162.32C1175.01 894.253 1181.98 888.083 1187.58 883.126C1193.39 877.984 1198.4 873.546 1211.77 873.546C1213.81 873.546 1215.84 873.708 1217.86 874.032C1219.01 871.153 1219.87 868.163 1220.42 865.11C1220.42 865.06 1220.44 865.008 1220.45 864.955C1217.58 864.426 1214.68 864.161 1211.77 864.163C1181.06 864.163 1182.66 884.86 1162.32 884.86H1154.75C1140.79 884.86 1131.62 874.906 1131.62 862.163V851.824C1131.62 839.081 1140.79 829.126 1154.75 829.126H1162.32C1182.66 829.126 1181.07 849.823 1211.77 849.823C1214.68 849.826 1217.58 849.56 1220.45 849.028C1220.45 848.982 1220.45 848.933 1220.42 848.884C1219.87 845.83 1219.01 842.841 1217.86 839.961Z" fill="#0AE9EF"/>
<path d="M1217.86 839.961C1215.84 840.285 1213.81 840.448 1211.77 840.447C1198.4 840.447 1193.39 836.009 1187.58 830.868C1181.99 825.91 1175.01 819.74 1162.32 819.74H1154.75C1145.58 819.74 1137.24 823.065 1131.27 829.1C1125.44 834.994 1122.23 843.062 1122.23 851.821V862.173C1122.23 870.931 1125.44 879 1131.27 884.893C1137.24 890.928 1145.58 894.253 1154.75 894.253H1162.32C1175.01 894.253 1181.98 888.083 1187.58 883.126C1193.39 877.984 1198.4 873.546 1211.77 873.546C1213.81 873.546 1215.84 873.708 1217.86 874.032C1219.01 871.153 1219.87 868.163 1220.42 865.11C1220.42 865.06 1220.44 865.008 1220.45 864.955C1217.58 864.426 1214.68 864.161 1211.77 864.163C1181.06 864.163 1182.66 884.86 1162.32 884.86H1154.75C1140.79 884.86 1131.62 874.906 1131.62 862.163V851.824C1131.62 839.081 1140.79 829.126 1154.75 829.126H1162.32C1182.66 829.126 1181.07 849.823 1211.77 849.823C1214.68 849.826 1217.58 849.56 1220.45 849.028C1220.45 848.982 1220.45 848.933 1220.42 848.884C1219.87 845.83 1219.01 842.841 1217.86 839.961Z" fill="#0AE9EF"/>
</g>
<path fill-rule="evenodd" clip-rule="evenodd" d="M1157.33 1197.23C1150.33 1197.24 1144.66 1202.91 1144.66 1209.9C1144.66 1216.89 1150.33 1222.56 1157.33 1222.57C1164.32 1222.56 1169.99 1216.89 1169.99 1209.9C1169.99 1202.91 1164.32 1197.24 1157.33 1197.23ZM1124.4 1197.23C1117.4 1197.24 1111.73 1202.91 1111.73 1209.9C1111.73 1216.9 1117.4 1222.57 1124.4 1222.57C1131.39 1222.57 1137.06 1216.9 1137.07 1209.9C1137.06 1202.91 1131.39 1197.24 1124.4 1197.23V1197.23ZM1153.52 1181.4C1153.52 1188.39 1147.85 1194.06 1140.86 1194.07C1133.86 1194.07 1128.19 1188.4 1128.19 1181.4C1128.19 1174.41 1133.86 1168.74 1140.85 1168.73C1147.85 1168.74 1153.52 1174.41 1153.52 1181.4Z" fill="url(#paint0_radial_5_201)"/>
<path d="M1396.29 1135.34L1366.08 1105.12L1335.87 1135.34C1335.39 1135.81 1335.13 1136.46 1335.13 1137.13C1335.13 1137.8 1335.39 1138.44 1335.87 1138.92L1366.08 1169.13L1396.29 1138.92C1396.76 1138.44 1397.03 1137.8 1397.03 1137.13C1397.03 1136.46 1396.76 1135.81 1396.29 1135.34ZM1366.08 1146.58L1356.61 1137.12L1366.08 1127.66L1375.54 1137.12L1366.08 1146.58Z" fill="#2684FF"/>
<path d="M1366.08 1127.72C1359.88 1121.53 1359.85 1111.49 1366.01 1105.26L1345.24 1125.9L1356.51 1137.17L1366.08 1127.72Z" fill="url(#paint1_linear_5_201)"/>
<path d="M1375.56 1137.1L1366.08 1146.59C1367.56 1148.06 1368.73 1149.82 1369.53 1151.75C1370.33 1153.69 1370.74 1155.76 1370.74 1157.85C1370.74 1159.95 1370.33 1162.02 1369.53 1163.95C1368.73 1165.89 1367.56 1167.64 1366.08 1169.12L1386.82 1148.37L1375.56 1137.1Z" fill="url(#paint2_linear_5_201)"/>
<path d="M1736.05 1009C1732.3 1002.63 1726.97 997.34 1720.55 993.649C1715.66 990.81 1710.6 989.006 1704.88 988.228V967.808C1707.66 966.663 1710.02 964.713 1711.67 962.212C1713.32 959.711 1714.18 956.773 1714.13 953.78C1714.14 951.758 1713.75 949.755 1712.99 947.885C1712.22 946.014 1711.09 944.314 1709.66 942.881C1708.23 941.448 1706.53 940.311 1704.66 939.535C1702.79 938.758 1700.79 938.359 1698.76 938.358C1694.66 938.36 1690.72 939.983 1687.82 942.874C1684.91 945.764 1683.27 949.686 1683.26 953.78C1683.26 960.046 1686.59 965.391 1692.32 967.808V988.113C1687.57 988.797 1682.97 990.239 1678.68 992.384L1623.91 950.991C1624.3 949.545 1624.63 948.05 1624.63 946.476C1624.63 944.233 1624.19 942.011 1623.33 939.938C1622.47 937.865 1621.21 935.982 1619.62 934.396C1618.03 932.809 1616.14 931.551 1614.06 930.693C1611.99 929.835 1609.76 929.394 1607.51 929.395C1605.27 929.395 1603.04 929.837 1600.96 930.696C1598.89 931.555 1597 932.814 1595.41 934.4C1593.83 935.987 1592.57 937.87 1591.71 939.943C1590.85 942.015 1590.41 944.236 1590.41 946.479C1590.41 948.723 1590.85 950.944 1591.71 953.017C1592.57 955.09 1593.83 956.974 1595.42 958.56C1597.01 960.146 1598.9 961.405 1600.97 962.263C1603.05 963.122 1605.28 963.563 1607.53 963.563C1610.63 963.55 1613.67 962.687 1616.32 961.07L1619.9 963.78L1669.04 999.135C1666.44 1001.51 1664.02 1004.22 1662.08 1007.27C1658.16 1013.47 1655.77 1020.28 1655.77 1027.73V1029.26C1655.79 1034.31 1656.7 1039.31 1658.46 1044.04C1659.94 1048.08 1662.12 1051.76 1664.82 1055.09L1648.5 1071.42C1646.14 1070.54 1643.57 1070.36 1641.1 1070.9C1638.64 1071.44 1636.38 1072.68 1634.6 1074.46C1632.11 1076.93 1630.72 1080.29 1630.73 1083.8C1630.74 1087.3 1632.11 1090.64 1634.61 1093.13C1637.11 1095.62 1640.45 1097 1643.96 1097C1645.7 1097.01 1647.43 1096.67 1649.03 1096C1650.64 1095.34 1652.09 1094.36 1653.32 1093.13C1655.8 1090.65 1657.19 1087.3 1657.19 1083.8C1657.19 1082.45 1656.98 1081.11 1656.58 1079.83L1673.44 1063C1675.79 1064.62 1678.3 1065.99 1680.93 1067.1C1686.46 1069.52 1692.43 1070.77 1698.47 1070.78H1699.62C1706.61 1070.81 1713.5 1069.07 1719.64 1065.73C1726.08 1062.28 1731.49 1057.19 1735.32 1050.98C1739.25 1044.72 1741.4 1037.78 1741.4 1030.14V1029.76C1741.4 1022.26 1739.66 1015.34 1736.02 1008.99L1736.05 1009ZM1715.46 1044.32C1710.88 1049.4 1705.62 1052.53 1699.67 1052.53H1698.54C1695.15 1052.53 1691.81 1051.6 1688.57 1049.88C1685.02 1048.04 1682.01 1045.3 1679.84 1041.94C1677.48 1038.62 1676.2 1034.99 1676.2 1031.14V1029.99C1676.2 1026.21 1676.93 1022.61 1678.76 1019.23C1680.72 1015.39 1683.37 1012.64 1686.9 1010.35C1690.23 1008.11 1694.16 1006.93 1698.17 1006.96H1698.56C1702.27 1006.96 1705.82 1007.69 1709.15 1009.39C1712.53 1011.17 1715.39 1013.77 1717.48 1016.95C1719.55 1020.14 1720.82 1023.78 1721.21 1027.56L1721.3 1029.95C1721.3 1035.16 1719.3 1039.98 1715.32 1044.35L1715.46 1044.32Z" fill="#F8761F"/>
<path d="M1649.82 346.485C1656.25 339.852 1665.15 335.661 1674.99 335.661C1688.11 335.661 1699.48 342.981 1705.58 353.808C1711.02 351.375 1716.92 350.127 1722.89 350.148C1746.54 350.148 1765.6 369.439 1765.6 393.23C1765.6 417.022 1746.46 436.334 1722.89 436.334C1720 436.334 1717.17 436.028 1714.5 435.495C1711.78 440.354 1707.82 444.4 1703.01 447.215C1698.2 450.03 1692.74 451.512 1687.17 451.509C1682.44 451.505 1677.77 450.436 1673.51 448.382C1668.1 461.117 1655.44 470.084 1640.72 470.084C1625.39 470.084 1612.27 460.402 1607.23 446.775C1605 447.233 1602.72 447.463 1600.44 447.461C1582.14 447.461 1567.34 432.516 1567.34 413.986C1567.33 408.133 1568.85 402.378 1571.76 397.295C1574.66 392.212 1578.84 387.976 1583.89 385.01C1581.77 380.181 1580.67 374.961 1580.69 369.685C1580.62 348.573 1597.93 331.34 1619.13 331.34C1625.07 331.33 1630.92 332.694 1636.24 335.327C1641.56 337.959 1646.2 341.788 1649.79 346.512" fill="#00A1E0"/>
<path d="M1596.05 403.293L1596.89 401.083C1597.04 400.703 1597.27 400.855 1597.42 400.93L1598.11 401.386C1599.67 402.403 1601.51 402.934 1603.37 402.913C1605.13 402.913 1606.27 401.997 1606.27 400.703V400.628C1606.27 399.256 1604.59 398.752 1602.61 398.109L1602.15 397.956C1599.48 397.193 1596.58 396.081 1596.58 392.694V392.619C1596.58 389.418 1599.18 387.127 1602.91 387.127H1603.29C1605.5 387.127 1607.56 387.738 1609.09 388.729C1609.24 388.804 1609.39 388.957 1609.32 389.185L1608.48 391.395C1608.33 391.775 1607.94 391.548 1607.94 391.548C1606.34 390.715 1604.56 390.271 1602.76 390.251C1601.15 390.251 1600.16 391.089 1600.16 392.233V392.309C1600.16 393.605 1601.92 394.184 1603.9 394.827L1604.28 394.902C1606.95 395.741 1609.78 396.885 1609.78 400.164V400.239C1609.78 403.722 1607.26 405.882 1603.21 405.882C1601.23 405.882 1599.33 405.576 1597.26 404.51C1596.88 404.282 1596.5 404.129 1596.12 403.824C1596.05 403.671 1595.89 403.596 1596.05 403.288L1596.05 403.293ZM1655.54 403.293L1656.38 401.083C1656.54 400.703 1656.84 400.855 1656.92 400.93L1657.61 401.386C1659.17 402.403 1661 402.934 1662.87 402.913C1664.62 402.913 1665.76 401.997 1665.76 400.703V400.628C1665.76 399.256 1664.09 398.752 1662.1 398.109L1661.65 397.956C1658.98 397.193 1656.08 396.081 1656.08 392.694V392.619C1656.08 389.418 1658.67 387.127 1662.41 387.127H1662.79C1665 387.127 1667.06 387.738 1668.59 388.729C1668.74 388.804 1668.89 388.957 1668.81 389.185L1667.97 391.395C1667.82 391.775 1667.44 391.548 1667.44 391.548C1665.83 390.715 1664.06 390.271 1662.25 390.251C1660.65 390.251 1659.66 391.089 1659.66 392.233V392.309C1659.66 393.605 1661.41 394.184 1663.4 394.827L1663.78 394.902C1666.45 395.741 1669.27 396.885 1669.27 400.164V400.239C1669.27 403.722 1666.75 405.882 1662.71 405.882C1660.73 405.882 1658.82 405.576 1656.76 404.51C1656.38 404.282 1656 404.129 1655.62 403.824C1655.62 403.671 1655.46 403.596 1655.54 403.288L1655.54 403.293ZM1699.63 392.844C1699.94 393.988 1700.17 395.207 1700.17 396.504C1700.17 397.801 1700.01 399.023 1699.63 400.164C1699.35 401.248 1698.83 402.255 1698.1 403.111C1697.4 403.958 1696.51 404.635 1695.51 405.094C1694.44 405.549 1693.22 405.778 1691.85 405.78C1689.79 405.782 1689.25 405.552 1688.19 405.094C1687.12 404.636 1686.31 403.95 1685.59 403.111C1684.88 402.246 1684.36 401.242 1684.06 400.164C1683.76 399.047 1683.53 397.801 1683.53 396.504C1683.53 395.207 1683.68 393.986 1684.06 392.844C1684.37 391.7 1684.9 390.709 1685.59 389.897C1686.3 389.051 1687.18 388.373 1688.19 387.915C1689.34 387.41 1690.59 387.15 1691.85 387.151C1693.22 387.151 1694.44 387.379 1695.51 387.915C1696.57 388.37 1697.38 389.059 1698.1 389.897C1698.81 390.763 1699.33 391.766 1699.63 392.844ZM1696.2 396.429C1696.2 394.447 1695.82 392.946 1695.13 391.853C1694.45 390.76 1693.3 390.251 1691.85 390.251C1690.33 390.251 1689.26 390.787 1688.57 391.853C1687.89 392.919 1687.51 394.447 1687.51 396.429C1687.51 398.412 1687.89 399.912 1688.57 401.08C1689.26 402.147 1690.33 402.683 1691.85 402.683C1693.38 402.683 1694.45 402.147 1695.13 401.08C1695.9 400.014 1696.2 398.412 1696.2 396.429ZM1727.55 402.147L1728.39 404.435C1728.46 404.74 1728.23 404.815 1728.23 404.815C1726.94 405.351 1725.18 405.654 1723.43 405.654C1720.48 405.654 1718.24 404.814 1716.72 403.135C1714.43 400.617 1714.43 399.17 1714.43 396.349C1714.43 395.052 1714.58 393.83 1714.97 392.689C1715.35 391.548 1715.88 390.554 1716.64 389.742C1717.41 388.893 1718.34 388.217 1719.39 387.759C1720.6 387.248 1721.89 386.989 1723.2 386.996C1724.04 386.997 1724.88 387.048 1725.72 387.148C1726.48 387.301 1727.55 387.529 1728.01 387.759C1728.08 387.759 1728.31 387.912 1728.24 388.14L1727.4 390.428C1727.24 390.808 1727.02 390.655 1727.02 390.655C1725.86 390.275 1724.65 390.093 1723.43 390.12C1721.75 390.12 1720.48 390.655 1719.69 391.797C1718.85 392.863 1718.4 394.315 1718.4 396.298C1718.4 398.433 1718.93 399.958 1719.84 400.949C1720.75 401.94 1722.05 402.396 1723.73 402.396C1724.41 402.396 1725.03 402.321 1725.56 402.243C1726.09 402.165 1726.63 402.015 1727.16 401.788C1727.09 401.94 1727.39 401.863 1727.54 402.168L1727.55 402.147ZM1744.86 392.158C1745.62 394.752 1745.24 396.962 1745.17 397.115C1745.17 397.421 1744.86 397.421 1744.86 397.421H1733.34C1733.42 399.175 1733.8 400.368 1734.72 401.233C1735.56 402.072 1736.85 402.605 1738.68 402.605C1741.43 402.605 1742.57 402.069 1743.41 401.766C1743.41 401.766 1743.72 401.691 1743.87 401.994L1744.63 404.129C1744.79 404.51 1744.63 404.585 1744.56 404.665C1743.87 405.046 1742.15 405.809 1738.76 405.809C1737.16 405.809 1735.71 405.581 1734.57 405.123C1733.42 404.665 1732.43 404.057 1731.67 403.248C1730.91 402.439 1730.38 401.418 1729.99 400.354C1729.61 399.21 1729.46 397.991 1729.46 396.694C1729.46 395.398 1729.61 394.176 1729.99 393.035C1730.3 391.891 1730.83 390.899 1731.52 390.087C1732.21 389.276 1733.12 388.56 1734.19 388.105C1735.26 387.569 1736.56 387.341 1738.01 387.341C1739.22 387.341 1740.37 387.569 1741.29 388.027C1741.97 388.333 1742.73 388.866 1743.5 389.704C1743.88 390.01 1744.56 391.151 1744.87 392.223L1744.86 392.158ZM1733.42 394.57H1741.58C1741.5 393.503 1741.27 392.587 1740.81 391.824C1740.13 390.757 1739.14 390.146 1737.61 390.146C1736.09 390.146 1735.02 390.757 1734.33 391.824C1733.88 392.509 1733.64 393.426 1733.41 394.57H1733.42ZM1652.8 392.158C1653.56 394.752 1653.18 396.962 1653.18 397.115C1653.18 397.421 1652.87 397.421 1652.87 397.421H1641.36C1641.43 399.175 1641.81 400.368 1642.73 401.233C1643.57 402.072 1644.86 402.605 1646.69 402.605C1649.44 402.605 1650.58 402.069 1651.43 401.766C1651.43 401.766 1651.73 401.691 1651.88 401.994L1652.64 404.129C1652.8 404.51 1652.64 404.585 1652.57 404.665C1651.88 405.046 1650.16 405.809 1646.77 405.809C1645.17 405.809 1643.72 405.581 1642.58 405.123C1641.43 404.665 1640.44 404.057 1639.68 403.248C1638.93 402.439 1638.39 401.418 1638.01 400.354C1637.63 399.21 1637.47 397.991 1637.47 396.694C1637.47 395.398 1637.62 394.176 1638.01 393.035C1638.31 391.891 1638.85 390.899 1639.53 390.087C1640.22 389.276 1641.14 388.56 1642.2 388.105C1643.27 387.569 1644.57 387.341 1646.02 387.341C1647.24 387.341 1648.38 387.569 1649.3 388.027C1649.98 388.333 1650.74 388.866 1651.51 389.704C1651.81 390.01 1652.57 391.151 1652.81 392.223L1652.8 392.158ZM1641.35 394.57H1649.59C1649.52 393.503 1649.29 392.587 1648.83 391.824C1648.14 390.757 1647.15 390.146 1645.63 390.146C1644.1 390.146 1643.03 390.757 1642.35 391.824C1641.81 392.509 1641.58 393.426 1641.35 394.57ZM1621.14 393.959L1623.02 394.187V393.731C1623.02 392.204 1622.71 391.443 1622.1 390.985C1621.49 390.527 1620.5 390.221 1619.28 390.221C1619.28 390.221 1616.46 390.221 1614.25 391.365C1614.17 391.44 1614.09 391.44 1614.09 391.44C1614.09 391.44 1613.79 391.515 1613.71 391.288L1612.87 389.077C1612.72 388.772 1612.95 388.622 1612.95 388.622C1614.01 387.783 1616.43 387.325 1616.43 387.325C1617.44 387.151 1618.46 387.049 1619.48 387.02C1621.77 387.02 1623.52 387.554 1624.75 388.622C1626.58 390.224 1626.58 391.368 1626.58 393.731V404.253C1626.58 404.253 1626.58 404.558 1626.35 404.633C1626.35 404.633 1625.89 404.786 1625.51 404.861L1622.62 405.397C1621.47 405.613 1620.3 405.716 1619.13 405.702C1617.99 405.702 1617 405.627 1616.08 405.397C1615.24 405.204 1614.44 404.869 1613.72 404.405C1613.07 403.925 1612.55 403.298 1612.19 402.575C1611.81 401.889 1611.65 400.973 1611.65 399.982C1611.65 399.057 1611.86 398.145 1612.26 397.313C1612.65 396.52 1613.26 395.942 1613.94 395.438C1614.63 394.934 1615.47 394.599 1616.31 394.294C1617.23 394.051 1618.18 393.923 1619.13 393.913L1621.11 393.988L1621.14 393.959ZM1616.56 402.042C1616.56 402.042 1617.63 402.881 1619.92 402.728C1621.6 402.653 1623.05 402.348 1623.05 402.348V397.11C1623.05 397.11 1621.6 396.882 1619.92 396.882C1617.56 396.882 1616.56 397.721 1616.56 397.721C1615.88 398.176 1615.57 398.94 1615.57 399.931C1615.56 400.464 1615.69 400.991 1615.95 401.455C1616.03 401.608 1616.11 401.761 1616.56 402.066V402.042ZM1713.81 388.089C1713.74 388.394 1713.12 389.964 1712.97 390.5C1712.9 390.728 1712.74 390.805 1712.52 390.805C1712.52 390.805 1711.83 390.653 1711.22 390.653C1710.7 390.665 1710.19 390.741 1709.69 390.88C1709.16 391.033 1708.7 391.336 1708.25 391.719C1707.79 392.102 1707.48 392.71 1707.25 393.396C1707.03 394.082 1706.87 395.226 1706.87 396.445V404.984C1706.87 405.212 1706.72 405.364 1706.49 405.364H1703.47C1703.24 405.364 1703.09 405.212 1703.09 404.984V387.837C1703.09 387.609 1703.24 387.456 1703.4 387.456H1706.34C1706.57 387.456 1706.65 387.609 1706.65 387.837V389.209C1707.15 388.586 1707.79 388.09 1708.53 387.762C1709.18 387.459 1710.05 387.226 1711.47 387.306C1712.24 387.381 1713.23 387.534 1713.35 387.612C1713.65 387.687 1713.8 387.765 1713.73 388.067L1713.81 388.089ZM1685.51 380.158C1685.58 380.158 1685.81 380.311 1685.74 380.539L1684.82 382.95C1684.75 383.103 1684.67 383.255 1684.28 383.103C1684.21 383.103 1684.06 383.028 1683.67 382.95C1683.45 382.875 1683.06 382.875 1682.76 382.875C1682.3 382.875 1681.92 382.95 1681.54 383.028C1681.16 383.105 1680.85 383.333 1680.55 383.638C1680.24 383.944 1679.93 384.324 1679.71 384.858C1679.4 385.695 1679.2 386.566 1679.1 387.451H1682.76C1683.06 387.451 1683.14 387.604 1683.14 387.831L1682.68 390.195C1682.61 390.575 1682.3 390.5 1682.3 390.5H1678.49L1676.08 405.217C1675.77 406.744 1675.46 408.038 1675.08 409.102C1674.7 410.166 1674.25 410.932 1673.56 411.696C1672.95 412.381 1672.26 412.915 1671.42 413.142C1670.66 413.448 1669.67 413.598 1668.6 413.598C1668.06 413.598 1667.53 413.598 1666.92 413.445C1666.55 413.39 1666.19 413.287 1665.85 413.14C1665.7 413.065 1665.63 412.912 1665.7 412.684L1666.49 410.372C1666.64 410.067 1666.87 410.219 1666.87 410.219L1667.48 410.447C1667.78 410.522 1668.09 410.522 1668.39 410.522C1668.93 410.522 1669.39 410.446 1669.77 410.294C1670.22 410.142 1670.53 409.839 1670.83 409.456C1671.14 409.073 1671.37 408.539 1671.67 407.853C1671.95 406.926 1672.18 405.986 1672.36 405.032L1674.95 390.618H1672.43C1672.13 390.618 1672.05 390.465 1672.05 390.237L1672.51 387.874C1672.58 387.494 1672.89 387.569 1672.89 387.569H1675.48L1675.64 386.805C1676.02 384.517 1676.78 382.765 1677.92 381.621C1679.07 380.477 1680.75 379.866 1682.8 379.866C1683.34 379.871 1683.88 379.922 1684.41 380.019C1684.71 379.944 1685.09 380.019 1685.47 380.172L1685.51 380.158ZM1634.1 404.941C1634.1 405.169 1633.95 405.322 1633.8 405.322H1630.75C1630.52 405.322 1630.44 405.169 1630.44 404.941V380.464C1630.44 380.311 1630.59 380.083 1630.75 380.083H1633.8C1634.02 380.083 1634.1 380.236 1634.1 380.464V404.941Z" fill="white"/>
<path d="M1946.53 722.837C1946.48 722.478 1946.3 722.147 1946.04 721.899C1945.77 721.65 1945.43 721.497 1945.07 721.464C1944.48 721.367 1931.61 720.484 1931.61 720.484L1921.79 710.659C1920.91 709.679 1918.95 709.966 1918.21 710.169C1918.11 710.169 1916.25 710.755 1913.21 711.746C1910.25 703.146 1905 695.312 1895.77 695.312H1894.98C1892.34 691.88 1889.1 690.303 1886.37 690.303C1864.87 690.399 1854.6 717.231 1851.39 730.942L1836.37 735.555C1831.76 737.024 1831.59 737.131 1830.97 741.53L1818.3 839.304L1913.24 857.091L1964.7 845.989C1964.7 845.893 1946.63 723.77 1946.53 722.837ZM1907.94 713.393C1905.55 714.182 1902.83 714.969 1899.87 715.855V714.083C1899.96 709.661 1899.3 705.256 1897.91 701.056C1902.72 701.796 1905.98 707.198 1907.92 713.39L1907.94 713.393ZM1892.14 702.192C1893.71 706.825 1894.44 711.704 1894.29 716.596V717.482L1877.7 722.597C1880.95 710.453 1886.94 704.454 1892.14 702.192ZM1885.76 696.216C1886.75 696.237 1887.7 696.544 1888.51 697.1C1881.59 700.326 1874.27 708.478 1871.13 724.794L1857.99 728.823C1861.7 716.442 1870.34 696.193 1885.76 696.193L1885.76 696.216Z" fill="#95BF47"/>
<path d="M1945.07 721.464C1944.48 721.367 1931.61 720.484 1931.61 720.484L1921.79 710.659C1921.43 710.289 1920.94 710.078 1920.42 710.073L1913.25 857.091L1964.71 845.989L1946.53 722.936C1946.48 722.567 1946.3 722.227 1946.04 721.963C1945.77 721.699 1945.43 721.525 1945.07 721.466V721.464Z" fill="#5E8E3E"/>
<path d="M1895.78 749.982L1889.39 768.855C1885.52 766.987 1881.3 765.98 1877.01 765.902C1867 765.902 1866.51 772.188 1866.51 773.767C1866.51 782.362 1888.99 785.661 1888.99 805.908C1888.99 821.805 1878.88 832.047 1865.3 832.047C1849 832.047 1840.65 821.922 1840.65 821.922L1844.99 807.458C1844.99 807.458 1853.53 814.834 1860.8 814.834C1861.67 814.867 1862.53 814.723 1863.35 814.411C1864.16 814.099 1864.9 813.626 1865.52 813.019C1866.15 812.412 1866.64 811.685 1866.98 810.882C1867.31 810.078 1867.48 809.215 1867.47 808.344C1867.47 797.034 1848.99 796.547 1848.99 778.067C1848.99 762.53 1860.18 747.394 1882.66 747.394C1891.5 747.524 1895.73 750 1895.73 750L1895.78 749.982Z" fill="white"/>
<path fill-rule="evenodd" clip-rule="evenodd" d="M2177 300.859C2177 283.934 2168.8 270.58 2153.13 270.58C2137.4 270.58 2127.88 283.934 2127.88 300.727C2127.88 320.626 2139.12 330.675 2155.25 330.675C2163.12 330.675 2169.07 328.89 2173.56 326.378V313.156C2169.07 315.403 2163.91 316.792 2157.36 316.792C2150.95 316.792 2145.27 314.544 2144.54 306.743H2176.87C2176.87 305.883 2177 302.446 2177 300.859ZM2144.34 294.578C2144.34 287.108 2148.9 284.001 2153.07 284.001C2157.1 284.001 2161.4 287.108 2161.4 294.578H2144.34ZM2102.36 270.58C2095.88 270.58 2091.72 273.621 2089.4 275.737L2088.54 271.638H2074V348.723L2090.53 345.219L2090.59 326.51C2092.97 328.229 2096.48 330.675 2102.29 330.675C2114.13 330.675 2124.9 321.155 2124.9 300.198C2124.84 281.026 2113.93 270.58 2102.36 270.58ZM2098.39 316.131C2094.49 316.131 2092.18 314.742 2090.59 313.023L2090.53 288.496C2092.25 286.579 2094.63 285.257 2098.39 285.257C2104.41 285.257 2108.58 292 2108.58 300.661C2108.58 309.519 2104.48 316.131 2098.39 316.131ZM2051.26 266.679L2067.85 263.109V249.689L2051.26 253.193V266.679ZM2051.26 271.704H2067.85V329.551H2051.26V271.704ZM2033.47 276.596L2032.42 271.704H2018.13V329.551H2034.66V290.347C2038.56 285.257 2045.17 286.182 2047.22 286.909V271.704C2045.11 270.911 2037.37 269.456 2033.47 276.596ZM2000.42 257.358L1984.29 260.796L1984.22 313.751C1984.22 323.535 1991.56 330.741 2001.34 330.741C2006.76 330.741 2010.73 329.749 2012.91 328.559V315.139C2010.8 315.998 2000.35 319.039 2000.35 309.255V285.786H2012.91V271.704H2000.35L2000.42 257.358ZM1955.73 288.496C1955.73 285.918 1957.84 284.926 1961.35 284.926C1966.37 284.926 1972.72 286.447 1977.74 289.157V273.621C1972.25 271.439 1966.83 270.58 1961.35 270.58C1947.93 270.58 1939 277.588 1939 289.289C1939 307.536 1964.12 304.627 1964.12 312.494C1964.12 315.536 1961.48 316.527 1957.78 316.527C1952.29 316.527 1945.28 314.279 1939.73 311.238V326.973C1945.88 329.617 1952.09 330.741 1957.78 330.741C1971.53 330.741 1980.98 323.932 1980.98 312.098C1980.91 292.397 1955.73 295.901 1955.73 288.496Z" fill="#635BFF"/>
<g clip-path="url(#clip3_5_201)">
<path d="M2129 1082H1979C1965.19 1082 1954 1093.19 1954 1107V1257C1954 1270.81 1965.19 1282 1979 1282H2129C2142.81 1282 2154 1270.81 2154 1257V1107C2154 1093.19 2142.81 1082 2129 1082Z" fill="#0079BF"/>
<path d="M2116 1108H2079C2072.37 1108 2067 1113.37 2067 1120V1183.5C2067 1190.13 2072.37 1195.5 2079 1195.5H2116C2122.63 1195.5 2128 1190.13 2128 1183.5V1120C2128 1113.37 2122.63 1108 2116 1108Z" fill="white"/>
<path d="M2029 1108H1992C1985.37 1108 1980 1113.37 1980 1120V1233.5C1980 1240.13 1985.37 1245.5 1992 1245.5H2029C2035.63 1245.5 2041 1240.13 2041 1233.5V1120C2041 1113.37 2035.63 1108 2029 1108Z" fill="white"/>
</g>
<g clip-path="url(#clip4_5_201)">
<path d="M290.759 1062H499.139C512.326 1062 523.002 1072.68 523.002 1085.86V1165.4C523.002 1178.59 512.327 1189.27 499.139 1189.27H424.412L434.669 1214.39L389.56 1189.27H290.865C277.678 1189.27 267.002 1178.59 267.002 1165.4V1085.86C266.897 1072.78 277.572 1062 290.759 1062Z" fill="#7F54B3"/>
<path d="M281.578 1083.75C283.035 1081.77 285.22 1080.73 288.134 1080.52C293.441 1080.11 296.459 1082.6 297.188 1088.02C300.414 1109.77 303.952 1128.19 307.698 1143.28L330.488 1099.88C332.57 1095.93 335.172 1093.84 338.294 1093.64C342.873 1093.32 345.682 1096.24 346.827 1102.38C349.429 1116.22 352.759 1127.98 356.713 1137.97C359.419 1111.53 363.998 1092.49 370.45 1080.73C372.011 1077.82 374.3 1076.36 377.318 1076.15C379.712 1075.94 381.898 1076.67 383.875 1078.23C385.852 1079.79 386.893 1081.77 387.101 1084.17C387.205 1086.04 386.892 1087.6 386.06 1089.16C382.001 1096.65 378.671 1109.25 375.966 1126.73C373.364 1143.69 372.428 1156.91 373.052 1166.38C373.26 1168.98 372.844 1171.27 371.803 1173.25C370.555 1175.54 368.681 1176.78 366.288 1176.99C363.582 1177.2 360.773 1175.95 358.067 1173.14C348.389 1163.26 340.687 1148.48 335.069 1128.81C328.304 1142.13 323.309 1152.12 320.084 1158.78C313.944 1170.54 308.741 1176.58 304.37 1176.89C301.56 1177.1 299.167 1174.7 297.085 1169.71C291.778 1156.07 286.055 1129.75 279.915 1090.72C279.498 1088.02 280.122 1085.62 281.579 1083.75H281.578ZM505.218 1100.09C501.472 1093.53 495.956 1089.58 488.568 1088.02C486.591 1087.6 484.718 1087.39 482.948 1087.39C472.958 1087.39 464.841 1092.59 458.493 1103C453.082 1111.85 450.377 1121.63 450.376 1132.35C450.376 1140.36 452.041 1147.23 455.371 1152.95C459.118 1159.51 464.633 1163.46 472.021 1165.02C473.998 1165.44 475.872 1165.65 477.641 1165.65C487.735 1165.65 495.852 1160.45 502.096 1150.04C507.507 1141.09 510.213 1131.31 510.213 1120.59C510.317 1112.47 508.548 1105.71 505.218 1100.09ZM492.106 1128.91C490.649 1135.78 488.047 1140.88 484.197 1144.32C481.179 1147.02 478.37 1148.17 475.767 1147.65C473.27 1147.13 471.189 1144.94 469.628 1140.88C468.379 1137.66 467.755 1134.43 467.755 1131.41C467.755 1128.81 467.963 1126.21 468.483 1123.81C469.42 1119.55 471.189 1115.39 473.999 1111.43C477.433 1106.33 481.075 1104.25 484.822 1104.98C487.319 1105.5 489.401 1107.68 490.962 1111.74C492.21 1114.97 492.835 1118.2 492.835 1121.21C492.835 1123.92 492.627 1126.52 492.106 1128.91ZM440.073 1100.09C436.327 1093.53 430.707 1089.58 423.423 1088.02C421.446 1087.6 419.573 1087.39 417.803 1087.39C407.813 1087.39 399.696 1092.59 393.348 1103C387.937 1111.85 385.232 1121.63 385.231 1132.35C385.231 1140.36 386.896 1147.23 390.226 1152.95C393.973 1159.51 399.488 1163.46 406.876 1165.02C408.853 1165.44 410.727 1165.65 412.496 1165.65C422.59 1165.65 430.707 1160.45 436.951 1150.04C442.362 1141.09 445.068 1131.31 445.068 1120.59C445.068 1112.47 443.403 1105.71 440.073 1100.09ZM426.857 1128.91C425.4 1135.78 422.798 1140.88 418.948 1144.32C415.93 1147.02 413.12 1148.17 410.518 1147.65C408.021 1147.13 405.94 1144.94 404.379 1140.88C403.13 1137.66 402.506 1134.43 402.506 1131.41C402.506 1128.81 402.714 1126.21 403.234 1123.81C404.171 1119.55 405.94 1115.39 408.75 1111.43C412.184 1106.33 415.826 1104.25 419.573 1104.98C422.07 1105.5 424.152 1107.68 425.713 1111.74C426.961 1114.97 427.586 1118.2 427.586 1121.21C427.69 1123.92 427.378 1126.52 426.857 1128.91Z" fill="white"/>
</g>
<g clip-path="url(#clip5_5_201)">
<path d="M1736.94 625.111L1727.57 635.297L1728.05 635.943L1786.85 635.729L1787.39 635.297L1796.28 625.057L1736.94 625.111Z" fill="#FFF16D"/>
<path d="M1727.57 635.297H1787.39V699.379H1727.57V635.297Z" fill="url(#paint3_linear_5_201)"/>
<path d="M1778.28 658.364C1777.08 655.373 1775.28 652.658 1773 650.388C1770.79 648.124 1768.31 646.401 1765.51 645.27C1762.76 644.139 1759.79 643.546 1756.56 643.546C1753.33 643.546 1750.31 644.139 1747.56 645.27C1744.76 646.401 1742.28 648.127 1740.07 650.388C1737.75 652.707 1736.03 655.4 1734.84 658.364C1733.65 661.328 1733.12 664.563 1733.12 668.119C1733.09 671.437 1733.69 674.728 1734.9 677.821C1736.07 680.842 1737.85 683.592 1740.12 685.906C1742.28 688.117 1744.76 689.787 1747.51 690.918C1750.25 692.049 1753.33 692.644 1756.62 692.644C1759.8 692.644 1762.76 692.052 1765.51 690.918C1768.26 689.784 1770.79 688.115 1773 685.906C1775.32 683.535 1777.09 680.841 1778.28 677.877C1779.47 674.913 1780.06 671.625 1780.06 668.176C1780.06 664.566 1779.47 661.331 1778.28 658.367L1778.28 658.364ZM1765.94 679.491C1763.62 682.24 1760.55 683.642 1756.56 683.642C1752.57 683.642 1749.45 682.24 1747.13 679.491C1744.81 676.741 1743.68 672.917 1743.68 668.066C1743.68 663.108 1744.87 659.281 1747.13 656.477C1749.45 653.674 1752.52 652.326 1756.56 652.326C1760.55 652.326 1763.62 653.728 1765.94 656.477C1768.2 659.281 1769.39 663.108 1769.39 668.066C1769.39 672.917 1768.26 676.744 1765.94 679.491Z" fill="white"/>
<path d="M1721.69 619.724V620.048L1729.35 678.847L1724.87 691.242L1724.28 690.811L1716.41 634.437L1716.57 633.684L1721.48 620.048L1721.69 619.724Z" fill="#009ADA"/>
<path d="M1662.78 627.917L1721.69 619.724L1716.73 633.845L1716.03 634.601L1660.95 642.686L1661.22 632.607L1662.78 627.917Z" fill="#91C9ED"/>
<path d="M1716.73 633.842L1724.87 691.24L1666.83 699.379L1659.01 643.922L1662.41 641.282L1716.73 633.842Z" fill="url(#paint4_linear_5_201)"/>
<path d="M1706.87 644.838C1706.6 643.059 1706.01 641.713 1705.04 640.797C1704.24 640.087 1703.2 639.703 1702.13 639.719C1701.86 639.719 1701.53 639.719 1701.21 639.773C1699.7 639.99 1698.57 640.69 1697.87 641.821C1697.33 642.63 1697.12 643.654 1697.12 644.838C1697.12 645.27 1697.17 645.755 1697.22 646.24L1699.32 661.167L1682.62 663.646L1680.52 648.719C1680.25 646.993 1679.65 645.648 1678.68 644.731C1677.91 643.996 1676.89 643.59 1675.83 643.6C1675.55 643.6 1675.29 643.6 1675.02 643.654C1673.45 643.871 1672.27 644.57 1671.51 645.701C1670.97 646.511 1670.76 647.534 1670.76 648.719C1670.76 649.15 1670.81 649.635 1670.86 650.174L1676.58 689.031C1676.85 690.811 1677.44 692.156 1678.52 693.073C1679.33 693.772 1680.3 694.097 1681.48 694.097C1681.81 694.097 1682.13 694.097 1682.45 694.043C1683.91 693.826 1684.99 693.126 1685.69 691.995C1686.17 691.186 1686.39 690.216 1686.39 689.085C1686.39 688.654 1686.33 688.168 1686.28 687.683L1683.96 672.324L1700.67 669.845L1702.99 685.204C1703.26 686.984 1703.85 688.329 1704.87 689.192C1705.68 689.902 1706.71 690.286 1707.78 690.27C1708.06 690.27 1708.38 690.27 1708.7 690.216C1710.21 689.999 1711.34 689.299 1712.04 688.168C1712.53 687.359 1712.8 686.389 1712.8 685.204C1712.8 684.773 1712.75 684.288 1712.69 683.803L1706.87 644.838Z" fill="white"/>
<path d="M1607.65 604.74L1586.68 654.54L1589.54 676.422L1589.7 676.368L1613.25 623.39L1613.15 622.259L1608.08 605.445L1607.65 604.74Z" fill="#66BF6B"/>
<path d="M1607.65 604.74L1613.2 623.387L1665.05 646.615L1665.21 646.508L1660.79 629.045L1607.65 604.74Z" fill="#98D0A0"/>
<path d="M1613.09 623.01L1665.21 646.508L1641.66 699.917L1589.54 676.419L1613.09 623.01Z" fill="url(#paint5_linear_5_201)"/>
<path d="M1649.42 650.82C1648.29 647.802 1646.73 645.216 1644.68 643.059C1642.58 640.855 1640.05 639.111 1637.24 637.937C1634.47 636.736 1631.48 636.112 1628.45 636.104H1628.29C1625.28 636.104 1622.31 636.803 1619.4 638.098C1616.38 639.397 1613.67 641.305 1611.43 643.702C1609.16 646.074 1607.33 648.984 1605.93 652.326C1604.58 655.468 1603.79 658.826 1603.61 662.242V663.373C1603.6 666.296 1604.11 669.197 1605.12 671.941C1606.2 674.905 1607.76 677.438 1609.81 679.595C1611.86 681.752 1614.39 683.476 1617.41 684.714C1620.16 685.923 1623.14 686.547 1626.14 686.547H1626.19C1629.16 686.547 1632.12 685.901 1635.03 684.66C1638.07 683.345 1640.8 681.419 1643.06 679.003C1645.33 676.631 1647.21 673.774 1648.61 670.432C1650.01 667.09 1650.77 663.802 1650.93 660.516V659.546C1650.99 656.566 1650.48 653.602 1649.42 650.815L1649.42 650.82ZM1639.02 666.342C1637.08 670.979 1634.44 674.157 1631.26 675.883C1629.53 676.8 1627.75 677.285 1625.97 677.285C1624.41 677.285 1622.74 676.907 1621.07 676.208C1617.41 674.645 1615.14 672.166 1614.17 668.61C1613.85 667.397 1613.68 666.146 1613.69 664.89C1613.69 662.304 1614.33 659.447 1615.63 656.376C1617.62 651.632 1620.26 648.4 1623.44 646.62C1625.05 645.701 1626.87 645.218 1628.72 645.219C1630.34 645.219 1631.96 645.597 1633.68 646.296C1637.29 647.858 1639.56 650.337 1640.53 653.894C1640.85 655.025 1641.01 656.266 1641.01 657.557C1641.01 660.253 1640.37 663.161 1639.02 666.342Z" fill="white"/>
<path d="M1582.53 613.201L1591.05 670.22L1587.17 690.27L1586.63 689.57L1578.33 634.491V633.413L1581.99 614.174L1582.53 613.201Z" fill="#760D16"/>
<path d="M1520.34 642.681L1524.38 622.525L1582.53 613.201L1578.6 633.735V635.083L1521.04 643.219L1520.34 642.681Z" fill="#EF463E"/>
<path d="M1578.6 633.735L1587.17 690.269L1529.61 699.269L1520.34 642.681L1578.6 633.735Z" fill="url(#paint6_linear_5_201)"/>
<path d="M1572.4 681.27C1571.97 680.731 1571.33 680.354 1570.57 680.086C1569.82 679.818 1568.9 679.708 1567.77 679.708C1566.74 679.708 1565.56 679.815 1564.27 680.032L1549.07 682.618C1549.23 681.431 1549.82 679.922 1550.85 678.038C1551.98 675.937 1553.7 673.402 1555.91 670.494L1557.69 668.176L1558.93 666.613C1562.43 662.033 1564.54 658.313 1565.4 655.403C1565.87 653.769 1566.16 652.088 1566.26 650.391C1566.32 649.906 1566.32 649.475 1566.32 649.043C1566.31 647.85 1566.21 646.66 1565.99 645.487C1565.83 644.409 1565.56 643.546 1565.18 642.847C1564.8 642.147 1564.37 641.606 1563.83 641.285C1563.24 640.907 1562.32 640.746 1561.19 640.746C1560.28 640.746 1559.15 640.854 1557.8 641.07L1540.23 644.082C1538.13 644.46 1536.51 645.053 1535.54 646.023C1535.15 646.379 1534.85 646.814 1534.64 647.297C1534.44 647.78 1534.34 648.301 1534.35 648.826C1534.35 649.133 1534.36 649.439 1534.41 649.743C1534.68 651.251 1535.43 652.329 1536.67 652.867C1537.43 653.192 1538.29 653.353 1539.37 653.353C1540.06 653.353 1540.87 653.299 1541.74 653.138L1556.4 650.552C1556.4 650.823 1556.45 651.091 1556.45 651.308C1556.45 652.227 1556.29 653.139 1555.97 654.001C1555.53 655.242 1554.46 656.965 1552.68 659.176L1550.41 661.979C1546.42 666.777 1543.62 670.872 1541.9 674.267C1540.74 676.456 1539.88 678.796 1539.37 681.219C1539.09 682.477 1538.95 683.759 1538.93 685.046C1538.93 685.909 1538.99 686.769 1539.15 687.579C1539.37 688.763 1539.64 689.734 1540.01 690.489C1540.39 691.245 1540.93 691.837 1541.52 692.159C1542.12 692.481 1542.92 692.59 1544.11 692.59C1545.56 692.59 1547.56 692.375 1550.09 691.945L1566.04 689.195C1568.85 688.71 1570.84 688.01 1571.97 687.094C1572.42 686.739 1572.77 686.288 1573.02 685.774C1573.26 685.26 1573.38 684.698 1573.37 684.13C1573.37 683.805 1573.32 683.484 1573.27 683.16C1573.17 682.459 1572.87 681.8 1572.4 681.27Z" fill="white"/>
</g>
<path d="M1311 367C1311 331.544 1339.54 303 1375 303C1410.46 303 1439 331.544 1439 367C1439 402.456 1410.46 431 1375 431C1339.54 431 1311 402.456 1311 367Z" fill="#4353FF"/>
<path d="M1393.8 359.4L1388 377.68C1388 376.28 1384 345.96 1384 345.96C1374.8 345.96 1369.92 352.48 1367.36 359.4L1360.28 377.72C1360.28 376.4 1359.28 359.56 1359.28 359.56C1358.94 355.914 1357.27 352.521 1354.6 350.022C1351.92 347.523 1348.42 346.092 1344.76 346L1352.28 391.92C1361.88 391.92 1367.08 385.4 1369.76 378.48L1375.76 362.88C1375.76 363.52 1379.76 391.92 1379.76 391.92C1383.69 391.915 1387.51 390.66 1390.67 388.337C1393.84 386.014 1396.18 382.744 1397.36 379L1410.96 345.96C1401.36 345.96 1396.32 352.48 1393.76 359.4H1393.8Z" fill="white"/>
<path fill-rule="evenodd" clip-rule="evenodd" d="M324.705 230.811L332.844 201.101C327.815 192.386 325.173 182.499 325.186 172.437C325.201 140.824 350.926 115.104 382.542 115.104C390.08 115.085 397.548 116.561 404.511 119.447C411.475 122.334 417.797 126.572 423.112 131.918C428.452 137.235 432.685 143.557 435.565 150.52C438.446 157.482 439.918 164.947 439.896 172.482C439.884 204.095 414.152 229.817 382.542 229.817H382.518C372.943 229.813 363.521 227.413 355.11 222.836L324.705 230.811Z" fill="white"/>
<path fill-rule="evenodd" clip-rule="evenodd" d="M324.705 232.322C324.473 232.321 324.245 232.268 324.037 232.165C323.829 232.062 323.648 231.912 323.507 231.728C323.366 231.544 323.269 231.329 323.225 231.102C323.18 230.874 323.189 230.639 323.249 230.415L331.221 201.307C326.271 192.491 323.674 182.55 323.678 172.44C323.69 139.99 350.096 113.594 382.542 113.594C390.279 113.575 397.943 115.09 405.09 118.052C412.238 121.015 418.727 125.365 424.181 130.852C429.662 136.307 434.007 142.796 436.963 149.942C439.92 157.087 441.43 164.749 441.406 172.482C441.394 204.929 414.986 231.328 382.542 231.328C372.912 231.323 363.428 228.961 354.92 224.449L325.089 232.27C324.964 232.304 324.835 232.321 324.705 232.322Z" fill="white"/>
<path fill-rule="evenodd" clip-rule="evenodd" d="M382.542 115.104C390.08 115.085 397.548 116.561 404.511 119.447C411.475 122.333 417.797 126.572 423.112 131.918C428.452 137.235 432.685 143.557 435.565 150.52C438.446 157.482 439.918 164.947 439.896 172.482C439.884 204.095 414.152 229.817 382.542 229.817H382.518C372.943 229.813 363.521 227.413 355.11 222.836L324.705 230.811L332.844 201.101C327.815 192.386 325.173 182.499 325.186 172.437C325.201 140.824 350.926 115.104 382.542 115.104ZM382.542 112.083C349.265 112.083 322.18 139.156 322.165 172.437C322.16 182.596 324.717 192.593 329.599 201.503L321.79 230.017C321.648 230.529 321.644 231.069 321.778 231.583C321.912 232.097 322.18 232.566 322.553 232.944C322.927 233.321 323.394 233.593 323.907 233.732C324.419 233.871 324.96 233.872 325.473 233.735L354.736 226.062C363.32 230.513 372.848 232.837 382.518 232.841C415.82 232.841 442.905 205.765 442.92 172.485C442.944 164.553 441.395 156.695 438.363 149.366C435.331 142.037 430.875 135.382 425.254 129.785C419.658 124.158 413.002 119.695 405.671 116.657C398.34 113.618 390.478 112.064 382.542 112.083Z" fill="#CFD8DC"/>
<path fill-rule="evenodd" clip-rule="evenodd" d="M416.261 138.763C411.847 134.32 406.595 130.797 400.81 128.398C395.024 126 388.82 124.773 382.557 124.789C356.264 124.789 334.88 146.164 334.867 172.44C334.855 181.412 337.383 190.205 342.157 197.803L343.293 199.606L338.474 217.19L356.518 212.46L358.261 213.493C365.606 217.844 373.987 220.138 382.524 220.136H382.542C408.817 220.136 430.202 198.757 430.211 172.479C430.23 166.216 429.007 160.011 426.613 154.224C424.218 148.437 420.7 143.182 416.261 138.763Z" fill="#40C351"/>
<path fill-rule="evenodd" clip-rule="evenodd" d="M368.205 148.469C367.133 146.083 366.003 146.035 364.979 145.992C364.142 145.956 363.188 145.959 362.233 145.959C361.279 145.959 359.726 146.318 358.412 147.753C357.098 149.188 353.394 152.653 353.394 159.704C353.394 166.754 358.53 173.569 359.246 174.524C359.962 175.479 369.16 190.411 383.726 196.156C395.831 200.929 398.296 199.981 400.924 199.742C403.552 199.503 409.404 196.277 410.597 192.93C411.79 189.583 411.79 186.716 411.434 186.118C411.074 185.52 410.119 185.163 408.688 184.444C407.256 183.725 400.208 180.261 398.894 179.783C397.58 179.306 396.625 179.067 395.668 180.502C394.713 181.934 391.967 185.163 391.131 186.118C390.294 187.073 389.457 187.196 388.025 186.477C386.593 185.758 381.977 184.248 376.501 179.366C372.241 175.569 369.365 170.878 368.529 169.443C367.692 168.011 368.438 167.235 369.157 166.519C369.8 165.875 370.589 164.845 371.308 164.008C372.024 163.172 372.262 162.574 372.74 161.619C373.217 160.664 372.978 159.825 372.619 159.109C372.265 158.39 369.48 151.303 368.205 148.469Z" fill="white"/>
<path d="M2129.39 606.231H2188.65V665.42H2129.39V606.231Z" fill="white"/>
<path d="M2129.39 606.231H2188.65V665.42H2129.39V606.231Z" fill="#99E1F4"/>
<path d="M2188.65 665.426H2247.57V724.272H2188.65V665.426Z" fill="white"/>
<path d="M2188.65 665.426H2247.57V724.272H2188.65V665.426Z" fill="#99E1F4"/>
<path d="M2129.39 724.275H2188.65V724.615H2129.39V724.275ZM2129.39 665.429H2188.65V724.275H2129.39V665.429Z" fill="#1A82E2"/>
<path d="M2188.65 547.385H2247.57V606.231H2188.65V547.385ZM2247.58 606.574H2306.84V665.42H2247.58V606.574Z" fill="#00B3E3"/>
<path d="M2188.65 665.426H2247.57V606.231H2188.65V665.426Z" fill="#009DD9"/>
<path d="M2247.58 547.385H2306.84V606.231H2247.58V547.385ZM2247.58 606.231H2306.84V606.571H2247.58V606.231Z" fill="#1A82E2"/>
<g clip-path="url(#clip6_5_201)">
<path d="M1551.45 1265.5C1533.84 1265.5 1519.5 1279.84 1519.5 1297.45C1519.5 1315.07 1533.84 1329.41 1551.45 1329.41C1569.16 1329.5 1583.5 1315.16 1583.5 1297.45C1583.5 1279.74 1569.16 1265.5 1551.45 1265.5ZM1551.45 1321.07C1538.52 1321.07 1527.93 1310.48 1527.93 1297.45C1527.93 1284.52 1538.52 1273.93 1551.45 1273.93C1564.48 1273.93 1575.07 1284.52 1575.07 1297.45C1575.07 1310.48 1564.48 1321.07 1551.45 1321.07Z" fill="#E31E26"/>
<path fill-rule="evenodd" clip-rule="evenodd" d="M1552.77 1289.49C1552.77 1287.72 1553.47 1286.03 1554.71 1284.78C1555.96 1283.54 1557.65 1282.83 1559.42 1282.83C1561.18 1282.83 1562.87 1283.54 1564.12 1284.78C1565.37 1286.03 1566.07 1287.72 1566.07 1289.49C1566.07 1291.25 1565.37 1292.94 1564.12 1294.19C1562.87 1295.44 1561.18 1296.14 1559.42 1296.14C1557.65 1296.14 1555.96 1295.44 1554.71 1294.19C1553.47 1292.94 1552.77 1291.25 1552.77 1289.49Z" fill="#E31E26"/>
<path fill-rule="evenodd" clip-rule="evenodd" d="M1552.77 1305.42C1552.77 1303.65 1553.47 1301.96 1554.71 1300.71C1555.96 1299.47 1557.65 1298.76 1559.42 1298.76C1561.18 1298.76 1562.87 1299.47 1564.12 1300.71C1565.37 1301.96 1566.07 1303.65 1566.07 1305.42C1566.07 1307.18 1565.37 1308.87 1564.12 1310.12C1562.87 1311.37 1561.18 1312.07 1559.42 1312.07C1557.65 1312.07 1555.96 1311.37 1554.71 1310.12C1553.47 1308.87 1552.77 1307.18 1552.77 1305.42Z" fill="#E31E26"/>
<path d="M1536.83 1305.42C1536.83 1304.54 1537 1303.68 1537.34 1302.87C1537.67 1302.06 1538.16 1301.33 1538.78 1300.71C1539.4 1300.09 1540.13 1299.6 1540.94 1299.27C1541.75 1298.93 1542.61 1298.76 1543.49 1298.76C1545.25 1298.76 1546.94 1299.47 1548.19 1300.71C1549.44 1301.96 1550.14 1303.65 1550.14 1305.42C1550.14 1307.18 1549.44 1308.87 1548.19 1310.12C1546.94 1311.37 1545.25 1312.07 1543.49 1312.07C1542.61 1312.07 1541.75 1311.9 1540.94 1311.57C1540.13 1311.23 1539.4 1310.74 1538.78 1310.13C1538.16 1309.51 1537.67 1308.77 1537.34 1307.97C1537 1307.16 1536.83 1306.29 1536.83 1305.42ZM1536.83 1289.49C1536.83 1288.61 1537 1287.75 1537.34 1286.94C1537.67 1286.13 1538.16 1285.4 1538.78 1284.78C1539.4 1284.16 1540.13 1283.67 1540.94 1283.34C1541.75 1283 1542.61 1282.83 1543.49 1282.83C1544.36 1282.83 1545.23 1283 1546.04 1283.34C1546.84 1283.67 1547.58 1284.16 1548.2 1284.78C1548.81 1285.4 1549.3 1286.13 1549.64 1286.94C1549.97 1287.75 1550.14 1288.61 1550.14 1289.49C1550.14 1290.36 1549.97 1291.23 1549.64 1292.04C1549.3 1292.84 1548.81 1293.58 1548.2 1294.2C1547.58 1294.81 1546.84 1295.3 1546.04 1295.64C1545.23 1295.97 1544.36 1296.14 1543.49 1296.14C1542.61 1296.14 1541.75 1295.97 1540.94 1295.64C1540.13 1295.3 1539.4 1294.81 1538.78 1294.2C1538.16 1293.58 1537.67 1292.84 1537.34 1292.04C1537 1291.23 1536.83 1290.36 1536.83 1289.49Z" fill="#E31E26"/>
</g>
<g clip-path="url(#clip7_5_201)">
<path d="M922.5 375C965.302 375 1000 340.302 1000 297.5C1000 254.698 965.302 220 922.5 220C879.698 220 845 254.698 845 297.5C845 340.302 879.698 375 922.5 375Z" fill="#2CA01C"/>
<path d="M863.681 297.475C863.687 314.996 877.817 329.244 895.338 329.399H899.82V317.687H895.338C884.475 320.651 873.272 314.246 870.315 303.384C870.29 303.297 870.271 303.21 870.246 303.123C867.202 292.118 873.576 280.717 884.544 277.548H886.782C889.59 276.935 892.498 276.935 895.307 277.548H906.194V339.728C906.138 346.306 911.427 351.688 918.005 351.75V265.235H895.406C877.761 265.328 863.538 279.706 863.631 297.351V297.357L863.681 297.475ZM949.705 265.248H945.223V277.579H949.705C960.543 274.622 971.722 281.008 974.679 291.839C974.704 291.92 974.722 292.007 974.747 292.087C977.773 303.055 971.418 314.413 960.493 317.575H958.255C955.447 318.189 952.539 318.189 949.73 317.575H938.843V255.402C938.899 248.824 933.61 243.442 927.032 243.38V330.019H949.631C967.431 329.74 981.635 315.089 981.363 297.289C981.09 279.88 967.047 265.83 949.631 265.558L949.705 265.248Z" fill="white"/>
</g>
<path d="M1430.55 882.563L1401.54 901.195L1421.62 917.324L1450.73 899.436M1401.54 933.146L1430.55 952.146L1450.73 935.276L1421.62 917.293M1450.73 935.276L1471.01 952.146L1499.93 933.33L1479.93 917.293M1499.93 901.348L1471.01 882.532L1450.73 899.402L1479.93 917.29M1450.82 938.886L1430.55 955.661L1421.81 950.007V956.402L1450.82 973.735L1479.84 956.402V950.007L1471.1 955.661" fill="#007EE5"/>
<g clip-path="url(#clip8_5_201)">
<path d="M416.182 944.05V845.14L385.507 817.077L358 801.504V926.595C358 936.253 365.825 944.05 375.455 944.05H416.182Z" fill="#4285F4"/>
<path d="M555.818 944.05H596.545C606.204 944.05 614 936.224 614 926.595V801.505L582.844 819.342L555.818 845.14V944.05Z" fill="#34A853"/>
<path d="M416.182 845.14L412.008 806.493L416.182 769.504L486 821.868L555.818 769.504L560.488 804.496L555.818 845.14L486 897.504L416.182 845.14Z" fill="#EA4335"/>
<path d="M555.818 769.504V845.14L614 801.504V778.231C614 756.646 589.36 744.341 572.11 757.286L555.818 769.504Z" fill="#FBBC04"/>
<path d="M358 801.504L384.759 821.574L416.182 845.14V769.504L399.89 757.286C382.61 744.34 358 756.646 358 778.23V801.504Z" fill="#C5221F"/>
</g>
<path d="M1007.55 1014.45H965.447V1056.55H1007.55V1014.45Z" fill="white"/>
<path d="M1007.55 1075.5L1026.5 1056.55H1007.55V1075.5Z" fill="#EA4335"/>
<path d="M1026.5 1014.45H1007.55V1056.55H1026.5V1014.45Z" fill="#FBBC04"/>
<path d="M1007.55 1056.55H965.447V1075.5H1007.55V1056.55Z" fill="#34A853"/>
<path d="M946.5 1056.55V1069.18C946.5 1070.01 946.663 1070.84 946.981 1071.6C947.298 1072.37 947.763 1073.06 948.35 1073.65C948.936 1074.24 949.633 1074.7 950.399 1075.02C951.165 1075.34 951.987 1075.5 952.816 1075.5H965.448V1056.55H946.5Z" fill="#188038"/>
<path d="M1026.5 1014.45V1001.82C1026.5 1000.99 1026.34 1000.17 1026.02 999.399C1025.7 998.633 1025.24 997.936 1024.65 997.35C1024.06 996.763 1023.37 996.298 1022.6 995.981C1021.84 995.663 1021.01 995.5 1020.18 995.5H1007.55V1014.45H1026.5Z" fill="#1967D2"/>
<path d="M1007.55 995.5H952.816C951.986 995.5 951.165 995.663 950.399 995.98C949.632 996.298 948.936 996.763 948.349 997.349C947.763 997.936 947.298 998.632 946.98 999.399C946.663 1000.17 946.5 1000.99 946.5 1001.82V1056.55H965.447V1014.45H1007.55V995.5H1007.55ZM974.084 1047.11C972.51 1046.05 971.421 1044.5 970.826 1042.44L974.479 1040.94C974.811 1042.2 975.39 1043.18 976.216 1043.88C977.455 1044.92 978.037 1044.91 979.205 1044.91C980.4 1044.91 981.426 1044.55 982.284 1043.82C983.571 1042.73 983.574 1042.17 983.574 1041.05C983.585 1040.51 983.468 1039.97 983.232 1039.48C982.996 1038.99 982.648 1038.57 982.216 1038.24C981.311 1037.51 980.174 1037.15 978.816 1037.15H976.705V1033.53H978.6C979.768 1033.53 980.752 1033.22 981.553 1032.59C982.754 1031.64 982.753 1031.09 982.753 1029.99C982.753 1029.01 982.395 1028.23 981.679 1027.65C980.605 1026.77 980.058 1026.77 978.958 1026.77C977.885 1026.77 977.032 1027.05 976.4 1027.63C975.452 1028.49 975.294 1028.93 975.021 1029.74L971.405 1028.23C971.884 1026.88 972.763 1025.68 974.052 1024.64C975.341 1023.6 976.989 1023.08 978.989 1023.08C980.469 1023.08 981.799 1023.37 982.978 1023.94C984.747 1024.8 985.083 1025.31 985.752 1026.32C986.421 1027.33 986.752 1028.47 986.752 1029.73C986.752 1031.02 986.441 1032.11 985.82 1033.01C984.888 1034.35 984.436 1034.59 983.531 1035.07V1035.28C984.7 1035.76 985.715 1036.56 986.468 1037.57C987.232 1038.6 987.614 1039.82 987.615 1041.26C987.616 1043.4 987.252 1043.97 986.526 1045.09C985.8 1046.21 984.794 1047.09 983.521 1047.73C982.242 1048.38 980.805 1048.7 979.21 1048.7C977.363 1048.71 975.657 1048.18 974.084 1047.11V1047.11ZM996.521 1028.99L992.511 1031.88L990.506 1028.84L997.701 1023.65H1000.46V1048.13H996.522V1028.98L996.521 1028.99Z" fill="#4285F4"/>
<g clip-path="url(#clip9_5_201)">
<path fill-rule="evenodd" clip-rule="evenodd" d="M865.708 597.233L902.133 633.469V720.763C902.135 721.847 901.922 722.92 901.506 723.92C901.091 724.921 900.481 725.829 899.712 726.592C898.942 727.359 898.028 727.967 897.023 728.38C896.018 728.793 894.941 729.004 893.854 729H814.379C813.292 729.004 812.215 728.793 811.21 728.38C810.205 727.967 809.291 727.359 808.521 726.592C807.752 725.829 807.142 724.921 806.727 723.92C806.311 722.92 806.098 721.847 806.1 720.763V605.47C806.098 604.386 806.311 603.313 806.727 602.313C807.142 601.312 807.752 600.404 808.521 599.641C809.291 598.874 810.205 598.267 811.21 597.854C812.215 597.44 813.292 597.23 814.379 597.233H865.708Z" fill="#28B446"/>
<path fill-rule="evenodd" clip-rule="evenodd" d="M865.708 597.233L902.133 633.469H873.987C869.399 633.469 865.708 629.384 865.708 624.822V597.233Z" fill="#6ACE7C"/>
<path fill-rule="evenodd" clip-rule="evenodd" d="M873.571 633.469L902.133 645.205V633.469H873.571Z" fill="#219B38"/>
<path fill-rule="evenodd" clip-rule="evenodd" d="M830.935 666.411C830.935 664.586 832.413 663.117 834.247 663.117H873.987C875.82 663.117 877.296 664.586 877.296 666.411V700.999C877.296 702.825 875.82 704.293 873.987 704.293H834.247C833.813 704.294 833.383 704.211 832.982 704.046C832.581 703.881 832.216 703.639 831.909 703.333C831.601 703.028 831.357 702.664 831.19 702.264C831.024 701.864 830.937 701.434 830.937 701.001V666.409L830.935 666.411ZM835.904 669.705H850.805V674.645H835.904V669.705ZM835.904 681.233H850.805V686.176H835.904V681.233ZM835.904 692.764H850.805V697.704H835.904V692.764ZM857.429 669.705H872.329V674.645H857.429V669.705ZM857.429 681.233H872.329V686.176H857.429V681.233ZM857.429 692.764H872.329V697.704H857.429V692.764Z" fill="white"/>
<path fill-rule="evenodd" clip-rule="evenodd" d="M863.474 595L899.9 631.236V718.53C899.902 719.614 899.689 720.687 899.273 721.687C898.858 722.688 898.248 723.596 897.479 724.359C896.709 725.126 895.795 725.733 894.79 726.146C893.785 726.56 892.708 726.77 891.621 726.767H812.146C811.059 726.77 809.982 726.56 808.977 726.146C807.972 725.733 807.058 725.126 806.288 724.359C805.519 723.596 804.909 722.688 804.494 721.687C804.078 720.687 803.865 719.614 803.867 718.53V603.237C803.865 602.153 804.078 601.08 804.494 600.08C804.909 599.079 805.519 598.171 806.288 597.408C807.058 596.641 807.972 596.033 808.977 595.62C809.982 595.207 811.059 594.996 812.146 595H863.474Z" fill="#28B446"/>
<path fill-rule="evenodd" clip-rule="evenodd" d="M863.474 595L899.9 631.236H871.753C867.166 631.236 863.474 627.151 863.474 622.588V595Z" fill="#6ACE7C"/>
<path fill-rule="evenodd" clip-rule="evenodd" d="M871.338 631.236L899.9 642.972V631.236H871.338Z" fill="#219B38"/>
<path fill-rule="evenodd" clip-rule="evenodd" d="M828.701 664.178C828.701 662.353 830.18 660.883 832.013 660.883H871.753C873.587 660.883 875.063 662.353 875.063 664.178V698.765C875.063 700.592 873.587 702.059 871.753 702.059H832.013C831.58 702.061 831.15 701.977 830.749 701.813C830.348 701.648 829.983 701.406 829.675 701.1C829.368 700.794 829.124 700.431 828.957 700.031C828.79 699.63 828.704 699.201 828.704 698.767V664.175L828.701 664.178ZM833.67 667.472H848.571V672.412H833.67V667.472ZM833.67 679H848.571V683.943H833.67V679ZM833.67 690.531H848.571V695.471H833.67V690.531ZM855.195 667.472H870.096V672.412H855.195V667.472ZM855.195 679H870.096V683.943H855.195V679ZM855.195 690.531H870.096V695.471H855.195V690.531Z" fill="white"/>
</g>
</g>
<defs>
<radialGradient id="paint0_radial_5_201" cx="0" cy="0" r="1" gradientUnits="userSpaceOnUse" gradientTransform="translate(3803.54 4129.77) scale(3903.45 3903.56)">
<stop stop-color="#FFB900"/>
<stop offset="0.6" stop-color="#F95D8F"/>
<stop offset="0.9991" stop-color="#F95353"/>
</radialGradient>
<linearGradient id="paint1_linear_5_201" x1="3260.07" y1="2388.44" x2="1665.45" y2="3068.54" gradientUnits="userSpaceOnUse">
<stop offset="0.18" stop-color="#0052CC"/>
<stop offset="1" stop-color="#2684FF"/>
</linearGradient>
<linearGradient id="paint2_linear_5_201" x1="1546.59" y1="3031.9" x2="3138.45" y2="2363.64" gradientUnits="userSpaceOnUse">
<stop offset="0.18" stop-color="#0052CC"/>
<stop offset="1" stop-color="#2684FF"/>
</linearGradient>
<linearGradient id="paint3_linear_5_201" x1="4718.71" y1="726.934" x2="4718.71" y2="6849.92" gradientUnits="userSpaceOnUse">
<stop offset="0.00562" stop-color="#FFE513"/>
<stop offset="1" stop-color="#FDB924"/>
</linearGradient>
<linearGradient id="paint4_linear_5_201" x1="1956.04" y1="1517.93" x2="7936.53" y2="6368.32" gradientUnits="userSpaceOnUse">
<stop offset="0.00562" stop-color="#008CD2"/>
<stop offset="1" stop-color="#00649D"/>
</linearGradient>
<linearGradient id="paint5_linear_5_201" x1="5372.9" y1="2759.51" x2="5372.9" y2="8123.84" gradientUnits="userSpaceOnUse">
<stop stop-color="#26A146"/>
<stop offset="1" stop-color="#008A52"/>
</linearGradient>
<linearGradient id="paint6_linear_5_201" x1="4442.75" y1="1171.77" x2="5331.12" y2="6747.01" gradientUnits="userSpaceOnUse">
<stop stop-color="#D92231"/>
<stop offset="1" stop-color="#BA2234"/>
</linearGradient>
<clipPath id="clip0_5_201">
<rect width="2432" height="1442" fill="white"/>
</clipPath>
<clipPath id="clip1_5_201">
<rect width="195" height="198" fill="white" transform="translate(1047 483)"/>
</clipPath>
<clipPath id="clip2_5_201">
<rect width="173" height="176" fill="white" transform="translate(1069 769)"/>
</clipPath>
<clipPath id="clip3_5_201">
<rect width="200" height="200" fill="white" transform="translate(1954 1082)"/>
</clipPath>
<clipPath id="clip4_5_201">
<rect width="256" height="253" fill="white" transform="translate(267 1012)"/>
</clipPath>
<clipPath id="clip5_5_201">
<rect width="268" height="268" fill="white" transform="translate(1519 523)"/>
</clipPath>
<clipPath id="clip6_5_201">
<rect width="65" height="65" fill="white" transform="translate(1519 1265)"/>
</clipPath>
<clipPath id="clip7_5_201">
<rect width="155" height="155" fill="white" transform="translate(845 220)"/>
</clipPath>
<clipPath id="clip8_5_201">
<rect width="256" height="193" fill="white" transform="translate(358 752)"/>
</clipPath>
<clipPath id="clip9_5_201">
<rect width="134" height="134" fill="white" transform="translate(786 595)"/>
</clipPath>
</defs>
</svg>
