<svg width="247" height="54" viewBox="0 0 247 54" fill="none" xmlns="http://www.w3.org/2000/svg">
<path fill-rule="evenodd" clip-rule="evenodd" d="M166.856 0V52.7812H159.825V0H166.856ZM79.8174 52.7812V28.9062H85.2862V22.3438H79.8174V11.1875H72.7862V22.3438H69.7862V28.9062H72.7862V52.7812H79.8174ZM47.2837 39.8125V22.3438H40.2524V39.9688C40.2524 42.7604 40.5441 44.8646 41.1274 46.2812C41.7316 47.8646 42.7629 49.2917 44.2212 50.5625C46.5962 52.625 49.6066 53.6562 53.2524 53.6562C56.9191 53.6562 59.9399 52.625 62.3149 50.5625C63.7524 49.2917 64.7629 47.8646 65.3462 46.2812C65.9504 44.5104 66.2524 42.4062 66.2524 39.9688V22.3438H59.2212V39.8125C59.2212 44.8542 57.2316 47.375 53.2524 47.375C49.2733 47.375 47.2837 44.8542 47.2837 39.8125ZM86.5074 37.3438C86.5074 32.9479 88.0804 29.2083 91.2262 26.125C94.372 23.0417 98.2054 21.5 102.726 21.5C107.268 21.5 111.122 23.0521 114.289 26.1562C117.414 29.2604 118.976 33.0729 118.976 37.5938C118.976 42.1562 117.403 45.9792 114.257 49.0625C111.091 52.125 107.205 53.6562 102.601 53.6562C98.0387 53.6562 94.2158 52.0938 91.1324 48.9688C88.0491 45.8854 86.5074 42.0104 86.5074 37.3438ZM93.6949 37.4688C93.6949 40.5104 94.5074 42.9167 96.1324 44.6875C97.7991 46.4792 99.997 47.375 102.726 47.375C105.476 47.375 107.674 46.4896 109.32 44.7188C110.966 42.9479 111.789 40.5833 111.789 37.625C111.789 34.6667 110.966 32.3021 109.32 30.5312C107.653 28.7396 105.455 27.8438 102.726 27.8438C100.039 27.8438 97.8616 28.7396 96.1949 30.5312C94.5283 32.3229 93.6949 34.6354 93.6949 37.4688ZM127.166 26.125C124.02 29.2083 122.447 32.9479 122.447 37.3438C122.447 42.0104 123.989 45.8854 127.072 48.9688C130.156 52.0938 133.979 53.6562 138.541 53.6562C143.145 53.6562 147.031 52.125 150.197 49.0625C153.343 45.9792 154.916 42.1562 154.916 37.5938C154.916 33.0729 153.354 29.2604 150.229 26.1562C147.062 23.0521 143.208 21.5 138.666 21.5C134.145 21.5 130.312 23.0417 127.166 26.125ZM132.072 44.6875C130.447 42.9167 129.635 40.5104 129.635 37.4688C129.635 34.6354 130.468 32.3229 132.135 30.5312C133.802 28.7396 135.979 27.8438 138.666 27.8438C141.395 27.8438 143.593 28.7396 145.26 30.5312C146.906 32.3021 147.729 34.6667 147.729 37.625C147.729 40.5833 146.906 42.9479 145.26 44.7188C143.614 46.4896 141.416 47.375 138.666 47.375C135.937 47.375 133.739 46.4792 132.072 44.6875ZM180.234 52.7812V22.3438H173.202V52.7812H180.234ZM173.484 6.5C172.588 7.39583 172.14 8.45833 172.14 9.6875C172.14 10.9792 172.588 12.0729 173.484 12.9688C174.38 13.8646 175.463 14.3125 176.734 14.3125C178.005 14.3125 179.077 13.8646 179.952 12.9688C180.848 12.0729 181.296 10.9896 181.296 9.71875C181.296 8.44792 180.848 7.375 179.952 6.5C179.057 5.60417 177.973 5.15625 176.702 5.15625C175.452 5.15625 174.38 5.60417 173.484 6.5ZM196.674 46.1562H214.767V52.7812H182.736L202.455 28.9062H186.924V22.3438H216.361L196.674 46.1562ZM224.739 39.2188H246.551L246.582 37.5625C246.582 32.5417 245.291 28.6146 242.707 25.7812C240.103 22.9271 236.562 21.5 232.082 21.5C227.645 21.5 224.082 22.9688 221.395 25.9062C218.728 28.8854 217.395 32.7812 217.395 37.5938C217.395 42.4479 218.77 46.3438 221.52 49.2812C224.27 52.1979 227.916 53.6562 232.457 53.6562C234.041 53.6562 235.51 53.4896 236.864 53.1562C238.218 52.8229 239.478 52.3021 240.645 51.5938C241.812 50.8646 242.905 49.9479 243.926 48.8438C244.947 47.7188 245.916 46.375 246.832 44.8125L240.895 41.5C239.457 43.75 238.176 45.2917 237.051 46.125C235.905 46.9583 234.457 47.375 232.707 47.375C230.457 47.375 228.614 46.6458 227.176 45.1875C225.739 43.7083 224.926 41.7188 224.739 39.2188ZM232.239 27.8438C235.989 27.8438 238.353 29.7188 239.332 33.4688H225.207C225.437 32.5938 225.77 31.8125 226.207 31.125C226.645 30.4375 227.166 29.8542 227.77 29.375C228.395 28.875 229.082 28.5 229.832 28.25C230.582 27.9792 231.385 27.8438 232.239 27.8438ZM16 52.7812C20.2608 52.7812 24.1327 51.1157 27 48.4003V52.7812H34V20.7812H27V25.1622C24.1327 22.4468 20.2608 20.7812 16 20.7812C7.16344 20.7812 0 27.9447 0 36.7812C0 45.6178 7.16344 52.7812 16 52.7812ZM7.17293 39.5371C7.5202 41.2829 8.37737 42.8865 9.63604 44.1452L12.818 40.9632C12.1887 40.3339 11.7601 39.5321 11.5865 38.6592C11.4128 37.7862 11.5019 36.8814 11.8425 36.0592C12.1831 35.2369 12.7599 34.5341 13.4999 34.0396C14.24 33.5452 15.11 33.2812 16 33.2812C16.89 33.2812 17.76 33.5452 18.5001 34.0396C19.2401 34.5341 19.8169 35.2369 20.1575 36.0592C20.4981 36.8814 20.5872 37.7862 20.4135 38.6592C20.2399 39.5321 19.8113 40.3339 19.182 40.9632L22.364 44.1452C23.6226 42.8865 24.4798 41.2829 24.8271 39.5371C25.1743 37.7912 24.9961 35.9816 24.3149 34.3371C23.6337 32.6926 22.4802 31.287 21.0001 30.298C19.5201 29.3091 17.78 28.7812 16 28.7812C14.22 28.7812 12.4799 29.3091 10.9999 30.298C9.51983 31.287 8.36627 32.6926 7.68508 34.3371C7.0039 35.9816 6.82567 37.7912 7.17293 39.5371Z" fill="#2563EB"/>
</svg>
