<svg width="36" height="20" viewBox="0 0 36 20" fill="none" xmlns="http://www.w3.org/2000/svg">
<g clip-path="url(#clip0_1_3)">
<path d="M28.5 1H29.5V0H28.5V1ZM27.7929 19.7071C28.1834 20.0976 28.8166 20.0976 29.2071 19.7071L35.5711 13.3431C35.9616 12.9526 35.9616 12.3195 35.5711 11.9289C35.1805 11.5384 34.5474 11.5384 34.1569 11.9289L28.5 17.5858L22.8431 11.9289C22.4526 11.5384 21.8195 11.5384 21.4289 11.9289C21.0384 12.3195 21.0384 12.9526 21.4289 13.3431L27.7929 19.7071ZM0.5 2H28.5V0H0.5V2ZM27.5 1V15.3617H29.5V1H27.5ZM27.5 15.3617V19H29.5V15.3617H27.5Z" fill="#1E1E1E"/>
</g>
<defs>
<clipPath id="clip0_1_3">
<rect width="36" height="20" fill="white"/>
</clipPath>
</defs>
</svg>
