<?xml version="1.0" standalone="no"?>
<!DOCTYPE svg PUBLIC "-//W3C//DTD SVG 20010904//EN"
 "http://www.w3.org/TR/2001/REC-SVG-20010904/DTD/svg10.dtd">
<svg version="1.0" xmlns="http://www.w3.org/2000/svg"
 width="700.000000pt" height="700.000000pt" viewBox="0 0 700.000000 700.000000"
 preserveAspectRatio="xMidYMid meet">
<metadata>
Created by potrace 1.14, written by Peter Selinger 2001-2017
</metadata>
<g transform="translate(0.000000,700.000000) scale(0.100000,-0.100000)"
fill="#000000" stroke="none">
<path d="M0 3500 l0 -3500 3500 0 3500 0 0 3500 0 3500 -3500 0 -3500 0 0
-3500z m3678 2164 c401 -59 785 -232 1095 -493 l97 -81 0 300 0 300 475 0 475
0 0 -2190 0 -2190 -475 0 -475 0 0 300 0 300 -97 -81 c-309 -261 -686 -430
-1098 -495 -150 -23 -468 -23 -620 0 -492 75 -911 290 -1257 642 -337 343
-549 787 -608 1274 -13 109 -13 391 0 500 50 408 218 813 466 1117 339 417
815 698 1335 788 214 37 475 41 687 9z"/>
<path d="M3146 4574 c-410 -74 -765 -362 -922 -748 -60 -148 -87 -288 -87
-456 -1 -165 16 -270 65 -408 53 -152 142 -306 242 -417 l45 -50 217 216 216
217 -40 53 c-98 130 -137 256 -129 414 8 168 68 295 194 415 139 133 335 193
519 159 279 -51 487 -279 510 -562 13 -144 -46 -327 -137 -431 l-42 -48 216
-216 216 -216 32 29 c96 90 224 308 273 463 77 246 75 526 -4 764 -142 425
-515 746 -954 823 -110 19 -322 18 -430 -1z"/>
</g>
</svg>
